<?xml version="1.0" encoding="UTF-8"?>
<svg xmlns="http://www.w3.org/2000/svg" xmlns:xlink="http://www.w3.org/1999/xlink" viewBox="0 0 500.72 480.85">
  <defs>
    <linearGradient id="b" data-name="Dégradé sans nom 25" x1="-2.81" y1="246.99" x2="511.22" y2="246.99" gradientUnits="userSpaceOnUse">
      <stop offset="0" stop-color="#f1d58d"/>
      <stop offset=".14" stop-color="#f1d58f"/>
      <stop offset=".23" stop-color="#f2d998"/>
      <stop offset=".31" stop-color="#f4dea7"/>
      <stop offset=".38" stop-color="#f6e6bc"/>
      <stop offset=".45" stop-color="#f9f0d8"/>
      <stop offset=".49" stop-color="#fcf8ee"/>
      <stop offset=".49" stop-color="#fbf7eb"/>
      <stop offset=".54" stop-color="#f8ecce"/>
      <stop offset=".6" stop-color="#f5e4b6"/>
      <stop offset=".66" stop-color="#f3dda3"/>
      <stop offset=".73" stop-color="#f2d896"/>
      <stop offset=".82" stop-color="#f1d58f"/>
      <stop offset="1" stop-color="#f1d58d"/>
    </linearGradient>
  </defs>
  <g id="a" data-name="Calque 1">
    <g>
      <path d="m471.07,266.08c-13.02,0-28.72-.31-28.72-.31,4.38-16.76,6.72-34.36,6.72-52.12,0-110.77-88.27-200.38-197.28-200.52h-2.85c-109.02.14-197.28,89.74-197.28,200.52,0,17.77,2.34,35.36,6.72,52.12,0,0-15.7.31-28.72.31-11.54,0-47.83,8.37-18.41,61.83l.11.73c42.39,90.11,132.89,152.21,237.83,152.21h2.34c104.95,0,195.44-62.11,237.83-152.21l.11-.73c29.42-53.46-6.86-61.83-18.41-61.83Z" fill="url(#b)"/>
      <g>
        <path d="m250.36,26.08c-101.74,0-184.52,83.01-184.52,185.04s82.78,185.02,184.52,185.02c56.11,0,106.46-25.26,140.3-65.01-1.58.33-3.18.6-4.8.79-33.25,37.47-81.66,61.1-135.5,61.1-100.01,0-181.4-81.6-181.4-181.89S150.36,29.2,250.36,29.2s181.39,81.62,181.39,181.92c0,13.42-1.46,26.48-4.22,39.07.81,1.41,1.54,2.87,2.19,4.37,3.37-13.94,5.16-28.48,5.16-43.44,0-102.03-82.78-185.04-184.51-185.04Z" fill="#1c1a1a"/>
        <path d="m250.36,36.23c-96.16,0-174.4,78.45-174.4,174.88s78.25,174.86,174.4,174.86c49.31,0,93.91-20.64,125.66-53.74-2.64-.15-5.24-.5-7.78-1.02-30.35,30-71.98,48.52-117.88,48.52-92.73,0-168.16-75.65-168.16-168.62S157.64,42.47,250.36,42.47s168.14,75.65,168.14,168.64c0,8.57-.65,17-1.87,25.24,1.93,1.77,3.72,3.68,5.39,5.72,1.79-10.05,2.73-20.39,2.73-30.96,0-96.43-78.23-174.88-174.38-174.88Z" fill="#1c1a1a"/>
        <g>
          <g>
            <path d="m243.62,310.52c-2.14,0-4.22,1.62-4.91,3.54-.69-1.91-2.77-3.54-4.89-3.54s-4.2,1.62-4.89,3.54c-.69-1.91-2.77-3.54-4.91-3.54s-4.22,1.62-4.89,3.56c-.67-1.93-2.77-3.56-4.89-3.56s-4.22,1.62-4.91,3.54c-.69-1.91-2.77-3.54-4.89-3.54s-4.2,1.62-4.89,3.54c-.69-1.91-2.77-3.54-4.91-3.54-1.62,0-3.25.96-4.18,2.27.12.08.25.17.37.23.87-1.19,2.33-2.04,3.81-2.04,2.27,0,4.51,2.02,4.66,4.14h-4.74c.27.17.56.31.85.46h1.46v.77c.15.08.29.15.46.23v-1h2v1.98c.15.08.29.17.46.23v-2.21h1.98v3.12c.15.08.31.15.46.21v-3.33h2v4.22c.17.06.31.12.46.19v-4.41h1.98v5.22c.17.06.31.12.48.19v-5.41h1.98v6.18c.15.06.29.1.46.17v-6.35h2v7.05c.15.06.29.12.46.17v-7.22h2v7.89c.15.06.29.1.46.15v-8.03h1.98v8.63c.15.06.31.1.46.15v-8.78h2v9.36c.15.04.29.08.46.12v-9.49h2v9.74h-1.08c.58.17,1.19.31,1.79.46h1.73v.42c.17.04.31.06.46.1v-.52h4.45v1.44c.17.04.31.06.46.1v-1.56h4.43v2.27c.15.02.29.04.46.06v-2.33h4.43v2.87c.17.02.31.04.46.04v-2.91h4.45v3.29c.15.02.31.02.46.02v-3.31h4.43v3.47c.15.02.31.02.46.02v-13.9c0-2.43-2.54-4.83-5.12-4.83Zm-43.81,4.6c.08-1.06.67-2.1,1.52-2.87.85-.77,1.98-1.27,3.12-1.27,2.27,0,4.49,2.02,4.64,4.14h-9.28Zm9.78,0c.08-1.06.67-2.1,1.52-2.87.87-.77,2-1.27,3.14-1.27,2.27,0,4.49,2.02,4.64,4.14h-9.3Zm14.21,10.19h-1.98v-9.74h1.98v9.74Zm-4.41-10.19c.06-1.06.67-2.1,1.52-2.87.87-.77,2-1.27,3.12-1.27,2.27,0,4.51,2.02,4.66,4.14h-9.3Zm6.87,10.19h-2v-9.74h2v9.74Zm2.46,0h-2v-9.74h2v9.74Zm2.43-.02h-1.98v-9.72h1.98v9.72Zm2.46,0h-2v-9.72h2v9.72Zm-4.41-10.17c.08-1.06.67-2.1,1.52-2.87.85-.77,1.98-1.27,3.12-1.27,2.27,0,4.49,2.02,4.64,4.14h-9.28Zm6.87,10.17h-2v-9.72h2v9.72Zm2.43,0h-1.98v-9.72h1.98v9.72Zm2.45,0h-2v-9.72h2v9.72Zm2.46,0h-2v-9.72h2v9.72Zm-4.43-10.17c.08-1.06.67-2.1,1.52-2.87.87-.77,2-1.27,3.14-1.27,2.27,0,4.49,2.02,4.64,4.14h-9.3Zm6.89,10.17h-2v-9.72h2v9.72Zm2.43,0h-1.98v-9.72h1.98v9.72Z" fill="#1c1a1a"/>
            <path d="m306.97,310.52c-2.12,0-4.2,1.62-4.89,3.54-.69-1.91-2.77-3.54-4.89-3.54-2.6,0-5.14,2.39-5.14,4.83v6.3c.17-.04.31-.1.46-.17v-5.91h2v5.12c.15-.04.31-.1.46-.19v-4.93h2v4.08c.15-.04.31-.1.46-.19v-3.89h1.98v3c.17-.06.33-.12.48-.21v-2.79h1.98v1.85c.15-.06.31-.15.46-.23v-1.62h2v.62c.15-.08.31-.17.46-.25v-.37h.71c.29-.15.56-.29.85-.46h-3.99c.15-2.12,2.37-4.14,4.64-4.14,1.35,0,2.7.71,3.58,1.75.15-.08.27-.17.4-.23-.96-1.16-2.45-1.98-3.97-1.98Zm-14.44,4.6c.06-1.06.67-2.1,1.54-2.87.85-.77,1.98-1.27,3.12-1.27,2.27,0,4.49,2.02,4.64,4.14h-9.3Z" fill="#1c1a1a"/>
            <path d="m275.27,311.43h-9.74c-1.71,0-2.52.96-2.52,2.91v14.25c.15,0,.31-.02.46-.06v-14.19c0-2.16,1.04-2.46,2.06-2.46h9.74c1.02,0,2.08.29,2.08,2.46v11.82c.17-.04.31-.06.46-.12v-11.69c0-1.96-.83-2.91-2.54-2.91Z" fill="#1c1a1a"/>
            <path d="m270.48,300.7s-.1-.02-.15,0c-10.76,3.39-11.3,14.21-11.3,16.35v11.9c.15,0,.31-.02.46-.02v-11.88c0-2.91.79-12.65,10.9-15.89,10.13,3.25,10.9,12.98,10.9,15.89v8.09c.17-.02.33-.06.48-.12v-7.97c0-2.14-.56-12.96-11.3-16.35Z" fill="#1c1a1a"/>
            <path d="m240.83,261.39v1.95h2.43v-4.7c-1.36.17-2.43,1.32-2.43,2.75Z" fill="#1c1a1a"/>
            <path d="m243.96,258.64v4.7h2.43v-1.95c0-1.43-1.08-2.57-2.43-2.75Z" fill="#1c1a1a"/>
            <path d="m231.04,261.39v1.95h2.43v-4.7c-1.36.17-2.43,1.32-2.43,2.75Z" fill="#1c1a1a"/>
            <path d="m234.17,258.64v4.7h2.43v-1.95c0-1.43-1.08-2.57-2.43-2.75Z" fill="#1c1a1a"/>
            <path d="m221.24,261.39v1.95h2.43v-4.7c-1.36.17-2.43,1.32-2.43,2.75Z" fill="#1c1a1a"/>
            <path d="m224.38,258.64v4.7h2.43v-1.95c0-1.43-1.08-2.57-2.43-2.75Z" fill="#1c1a1a"/>
            <path d="m213.89,258.64c-1.36.17-2.44,1.32-2.44,2.75v1.95h2.44v-4.7Z" fill="#1c1a1a"/>
            <path d="m217.02,261.39c0-1.43-1.08-2.57-2.44-2.75v4.7h2.44v-1.95Z" fill="#1c1a1a"/>
            <path d="m201.66,261.39v1.95h2.43v-4.7c-1.36.17-2.43,1.32-2.43,2.75Z" fill="#1c1a1a"/>
            <path d="m204.79,258.64v4.7h2.43v-1.95c0-1.43-1.08-2.57-2.43-2.75Z" fill="#1c1a1a"/>
            <path d="m194.3,258.64c-1.36.17-2.43,1.32-2.43,2.75v1.95h2.43v-4.7Z" fill="#1c1a1a"/>
            <path d="m197.43,261.39c0-1.43-1.08-2.57-2.43-2.75v4.7h2.43v-1.95Z" fill="#1c1a1a"/>
            <path d="m182.07,261.39v1.95h2.43v-4.7c-1.36.17-2.43,1.32-2.43,2.75Z" fill="#1c1a1a"/>
            <path d="m185.2,258.64v4.7h2.43v-1.95c0-1.43-1.08-2.57-2.43-2.75Z" fill="#1c1a1a"/>
            <path d="m174.71,258.64c-1.36.17-2.43,1.32-2.43,2.75v1.95h2.43v-4.7Z" fill="#1c1a1a"/>
            <path d="m177.84,261.39c0-1.43-1.08-2.57-2.43-2.75v4.7h2.43v-1.95Z" fill="#1c1a1a"/>
            <path d="m164.92,258.64c-1.36.17-2.44,1.32-2.44,2.75v1.95h2.44v-4.7Z" fill="#1c1a1a"/>
            <path d="m168.05,261.39c0-1.43-1.08-2.57-2.44-2.75v4.7h2.44v-1.95Z" fill="#1c1a1a"/>
            <path d="m164.96,292.34v-.92h-.85c.27.31.56.6.85.92Z" fill="#1c1a1a"/>
            <path d="m155.12,258.64c-1.36.17-2.43,1.32-2.43,2.75v1.95h2.43v-4.7Z" fill="#1c1a1a"/>
            <path d="m158.25,261.39c0-1.43-1.08-2.57-2.43-2.75v4.7h2.43v-1.95Z" fill="#1c1a1a"/>
            <path d="m326.21,258.64v1.44c-.35,1.06-.67,2.16-.96,3.27h-1.48v-1.96c0-1.41,1.08-2.56,2.43-2.75Z" fill="#1c1a1a"/>
            <path d="m313.99,261.39v1.95h2.44v-4.7c-1.36.17-2.44,1.32-2.44,2.75Z" fill="#1c1a1a"/>
            <path d="m317.12,258.64v4.7h2.44v-1.95c0-1.43-1.08-2.57-2.44-2.75Z" fill="#1c1a1a"/>
            <path d="m304.2,261.39v1.95h2.43v-4.7c-1.36.17-2.43,1.32-2.43,2.75Z" fill="#1c1a1a"/>
            <path d="m307.34,258.64v4.7h2.43v-1.95c0-1.43-1.08-2.57-2.43-2.75Z" fill="#1c1a1a"/>
            <path d="m294.41,261.39v1.95h2.44v-4.7c-1.36.17-2.44,1.32-2.44,2.75Z" fill="#1c1a1a"/>
            <path d="m297.54,258.64v4.7h2.44v-1.95c0-1.43-1.08-2.57-2.44-2.75Z" fill="#1c1a1a"/>
            <path d="m275.79,255.94v4.41h2.27v-1.82c0-1.33-1-2.43-2.27-2.59Z" fill="#1c1a1a"/>
            <path d="m262.68,258.53v1.82h2.3v-4.41c-1.3.16-2.3,1.26-2.3,2.59Z" fill="#1c1a1a"/>
            <path d="m351.76,221.83h-2.12v-12.21h2.08c.12,0,.23-.1.23-.23v-3.64c0-.15-.1-.23-.23-.23h-2.12l-2.89-21.93c-.02-.12-.12-.21-.23-.21-.12,0-.23.08-.23.21l-2.91,21.93h-2.12c-.12,0-.23.08-.23.23v1.58h-51.93v-27.71c0-.12-.1-.23-.23-.23h-.85v-7.3h.85c.12,0,.23-.1.23-.23v-4.45c0-.12-.1-.23-.23-.23h-.85v-9.88h.85c.12,0,.23-.1.23-.23v-4.45c0-.12-.1-.23-.23-.23h-.94l-2.79-7.74c-.06-.17-.37-.17-.44,0l-2.79,7.74h-.94c-.12,0-.23.1-.23.23v4.45c0,.12.1.23.23.23h.85v9.88h-.85c-.12,0-.23.1-.23.23v4.45c0,.12.1.23.23.23h.85v7.3h-1.96v-64.97c0-.12-.1-.23-.23-.23h-1.16v-12.46s0-.04-.02-.06l-6.01-22.09v-2.33c0-.12-.1-.23-.23-.23h-1.02v-3.47h.21v-.75c.21-.48.62-.48.92-.48v-.77c-.29-.15-.71.17-.81-.15-.31-.31.21-.77.31-1.23.4-1.37-1.02-1.69-1.75-1.37-.42.29,0,1.37-.31,1.69-.21.31-.6.31-.81-.31h-.31c.1.77.1,1.69.1,2.45h.92c-.4.92.31,2.45-.5,2.91v.48c.17.4.4.56.42,1h-.94c-.12,0-.23.1-.23.23v2.39l-6.01,22.03v12.52h-1.19c-.12,0-.23.1-.23.23v64.97h-1.96v-7.3h.87c.12,0,.23-.1.23-.23v-4.45c0-.12-.1-.23-.23-.23h-.87v-9.88h.87c.12,0,.23-.1.23-.23v-4.45c0-.12-.1-.23-.23-.23h-.94l-2.81-7.74c-.06-.17-.35-.17-.42,0l-2.81,7.74h-.94c-.12,0-.23.1-.23.23v4.45c0,.12.1.23.23.23h.87v9.88h-.87c-.12,0-.23.1-.23.23v4.45c0,.12.1.23.23.23h.87v7.3h-.87c-.12,0-.23.1-.23.23v27.71h-100.86v-1.58c0-.15-.1-.23-.23-.23h-2.12l-2.91-21.93c0-.12-.1-.21-.23-.21-.1,0-.21.08-.21.21l-2.91,21.93h-2.12c-.12,0-.23.08-.23.23v3.64c0,.12.1.23.23.23h2.08v12.21h-2.14c-.12,0-.23.1-.23.23v5.12c0,.12.1.23.23.23h1.12v12.65h-3.04c-.12,0-.23.1-.23.23v5.37c.15.48.29.96.46,1.44v-6.57h1.46v7.55h-1.14c.04.17.1.31.17.48h112.86v1.25h-112.45c.04.15.08.31.15.46h.42v1.17c.15.42.29.83.46,1.23v-2.39h10.05v2.66h-9.94c.04.17.1.31.17.46h3.27c-.71.44-1.19,1.21-1.27,2.08h-1.19c.06.17.12.31.17.46.02.02.04.06.04.08v-.08h.54v1.37c.15.35.29.71.46,1.06v-2.43h.21c.12,0,.23-.1.23-.23,0-1.27,1.04-2.31,2.31-2.31s2.29,1.04,2.29,2.31c0,.12.1.23.23.23h.25v13.54c.15.27.31.54.46.81v-14.36h.54v15.27c.15.25.29.52.46.77v-16.04h.25c.12,0,.23-.1.23-.23,0-.4.1-.79.31-1.12v18.68c.15.25.29.5.46.75v-16.29c0-2.79,3.68-3.37,4.66-3.37s4.68.58,4.68,3.37v16.33h-1.89v-10.01h-2.43v10.01h-.71v-10.01h-2.43v10.01h-1.85c.1.17.19.31.29.46h1.69v2.58c.15.23.29.46.46.69v-3.27h1.98v5.2h-.65c.12.17.23.31.33.46h.31v.44c.15.21.31.42.46.62v-1.06h2v3.7c.15.21.31.4.46.58v-4.29h2v4.49h-1.83c.12.17.23.31.37.46h1.46v1.81c.15.19.29.35.46.54v-2.35h1.98v4.64c.08.1.17.19.25.29.06.08.15.15.21.23.17.17.31.35.48.54h1.44v-4.08c-.85.12-1.58.67-1.91,1.44v-3.06h4.45v3.12c-.33-.81-1.06-1.37-1.94-1.5v4.08h1.94v.62h-1.94v1.54c.62.67,1.27,1.33,1.94,1.98l.19.19c.08.1.17.19.27.27v-10.3h1.98v12.21c.15.15.29.29.46.42v-12.63h2v14.46c.08.08.17.17.25.23.08.06.15.12.21.19.12.1.25.23.37.33.04.02.06.06.1.08l.44.37h3.52v1.25h-2.04c.17.17.35.31.54.46h1.5v1.21c.15.15.31.25.46.37v-1.58h2v3.12c.15.12.31.23.46.35v-3.47h2v3.64h-1.77c.21.17.42.31.62.46h70.69v1.25h-68.97c.21.15.44.29.65.46h68.32v20.97c.15.02.31.02.46,0v-30.4h3.12v30.31c.17,0,.33,0,.48-.02v-30.29h2.14v30.19c.17,0,.31-.02.46-.04v-30.15h24.03v26.01c.15-.04.31-.08.46-.15v-25.86h2.14v25.24c.15-.04.31-.1.46-.15v-25.09h3.12v24.05c.17-.04.31-.08.46-.15v-14.48h28.4c.23-.15.44-.29.64-.46h-29.04v-1.25h30.79c.21-.15.42-.29.62-.46h-1.02v-3.64h1.98v2.91c.17-.1.31-.23.46-.35v-2.56h2v1c.17-.1.31-.23.46-.35v-.64h.81c.19-.17.37-.31.54-.46h-1.35v-1.25h2.81l.44-.37s.06-.04.1-.08c.23-.19.46-.4.69-.6-.56-1.21-1.06-2.46-1.52-3.7v4.31h-.6v-6.03c-.31-.94-.6-1.89-.85-2.87h-1.06v-.6h.89c-.25-.98-.48-1.98-.69-2.97-.08.12-.15.25-.21.37v-1.6c-.21-1.06-.35-2.12-.46-3.18v1.23h-2v-4.49h1.71c0-.15-.02-.31-.02-.46h-1.69v-5.2h1.69c0-.15.02-.31.02-.46h-1.71v-16.33c0-2.79,3.68-3.37,4.68-3.37.35,0,1.02.06,1.77.29.04-.15.1-.29.19-.44-.73-.23-1.44-.31-1.96-.31-1.44,0-4.14.67-4.91,2.64-.77-1.98-3.45-2.64-4.89-2.64-1.04,0-2.81.37-3.97,1.37v-4.99h17.66v.1c.1-.19.21-.37.33-.56h-41.73v-1.25h42.46c.08-.17.19-.33.31-.48h-.15v-7.55h2v4.76c.12-.21.29-.44.46-.64v-4.12h2v1.52c.17-.19.31-.37.46-.54v-.98h.85c.12-.15.27-.31.4-.46h-3.7v-2.95l2.23-3.25,2.21,3.25v2.18c.15-.17.31-.33.46-.48v-1.77s0-.1-.04-.12l-2.43-3.6c-.08-.12-.29-.12-.37,0l-2.46,3.6s-.04.08-.04.12v3.02h-4.51v-3.02s-.02-.1-.04-.12l-2.46-3.6c-.08-.12-.29-.12-.37,0l-2.46,3.6s-.04.08-.04.12v3.02h-4.43v-3.02s-.02-.1-.04-.12l-2.46-3.6c-.08-.12-.29-.12-.37,0l-2.46,3.6s-.04.08-.04.12v3.02h-4.43v-3.02s-.02-.1-.04-.12l-2.43-3.6c-.08-.12-.29-.12-.37,0l-2.46,3.6s-.04.08-.04.12v3.02h-4.45v-3.02s0-.1-.04-.12l-2.43-3.6c-.08-.12-.29-.12-.37,0l-2.46,3.6s-.04.08-.04.12v3.02h-5.37v-32.27h51.93v1.6c0,.12.1.23.23.23h2.1v12.21h-2.04c-.12,0-.23.1-.23.23v5.12c0,.12.1.23.23.23h1v8.32c.15-.15.29-.29.46-.4v-4.72c.27-.29,1.08-.5,1.87-.5h.04c.73,0,1.31.19,1.6.48v1.93c.15-.1.29-.23.46-.31v-1.62c.27-.29.87-.48,1.58-.48h.04c.44,0,.89.06,1.25.19.15-.12.29-.21.46-.29-.48-.25-1.17-.35-1.71-.35h-.04c-.77,0-1.42.19-1.81.56-.4-.35-1.04-.56-1.83-.56h-.04c-.6,0-1.37.12-1.87.42v-1.6h7.47v1.44c.15-.1.31-.19.46-.27v-2.23h1.1c.12,0,.23-.1.23-.23v-5.12c0-.12-.1-.23-.23-.23Zm-201.41,31.94c-.44.46-.71,1.04-.75,1.69h-1.52c-.08-.87-.56-1.64-1.25-2.08h3.52v.4Zm7.34,25.92h-2v-5.2h2v5.2Zm2.45,0h-2v-5.2h2v5.2Zm.23-23.18c-.77-1.98-3.47-2.64-4.91-2.64-1.29,0-3.68.56-4.66,2.18v-5.8h18.35v4.91c-1.14-.94-2.87-1.29-3.89-1.29-1.41,0-4.12.67-4.89,2.64Zm2.2,28.13h-1.98v-4.49h1.98v4.49Zm0-4.95h-1.98v-5.2h1.98v5.2Zm2.46,4.95h-2v-4.49h2v4.49Zm0-4.95h-2v-5.2h2v5.2Zm2.46,4.95h-2v-4.49h2v4.49Zm0-4.95h-2v-5.2h2v5.2Zm2.43,4.95h-1.98v-4.49h1.98v4.49Zm0-4.95h-1.98v-5.2h1.98v5.2Zm0-5.66h-1.87v-10.01h-2.46v10.01h-.69v-10.01h-2.43v10.01h-1.87v-16.33c0-2.79,3.68-3.37,4.66-3.37.69,0,2.75.29,3.89,1.46v.37s.02.06.04.1l.73,1.5v16.27Zm.23-17.52c-.12-.33-.31-.62-.54-.89v-5.37h1.08v5.37c-.23.27-.42.56-.54.89Zm2.23,28.13h-2v-4.49h2v4.49Zm0-4.95h-2v-5.2h2v5.2Zm4.89,8.49c-.33-.77-1.06-1.33-1.91-1.46v4.08h1.91v.6h-1.91v8.9h-.6v-8.88h-1.91v-.62h1.91v-4.08c-.85.12-1.58.69-1.91,1.46v-3.08h4.43v3.08Zm-2.43-8.03v4.49h-2v-4.49h2Zm-2-.46v-5.2h2v5.2h-2Zm4.43,4.95h-1.98v-4.49h1.98v4.49Zm0-4.95h-1.98v-5.2h1.98v5.2Zm2.46,22.32h-2v-1.25h2v1.25Zm0-1.71h-2v-15.21h2v15.21Zm0-15.67h-2v-4.49h2v4.49Zm0-4.95h-2v-5.2h2v5.2Zm0-5.66h-1.89v-10.01h-2.43v10.01h-.69v-10.01h-2.43v10.01h-1.89v-16.27l.75-1.41s.02-.06.02-.1v-.44c1.12-1.19,3.2-1.48,3.91-1.48.98,0,4.66.58,4.66,3.37v16.33Zm.23-17.52c-.77-1.98-3.47-2.64-4.89-2.64-1.04,0-2.75.35-3.91,1.29v-4.91h17.6v4.91c-1.16-.94-2.87-1.29-3.91-1.29-1.41,0-4.12.67-4.89,2.64Zm2.23,45.5h-2v-1.25h2v1.25Zm0-1.71h-2v-15.21h2v15.21Zm0-15.67h-2v-4.49h2v4.49Zm0-4.95h-2v-5.2h2v5.2Zm2.43,26.42h-1.98v-3.64h1.98v3.64Zm2.46,0h-2v-3.64h2v3.64Zm0-4.1h-4.43v-1.25h4.43v1.25Zm0-13.81c-.33-.79-1.06-1.35-1.91-1.48v4.08h1.91v.6h-1.91v8.9h-.6v-8.9h-1.91v-.6h1.91v-4.08c-.85.12-1.58.69-1.91,1.46v-3.08h4.43v3.1Zm-2.46-8.05v4.49h-1.98v-4.49h1.98Zm-1.98-.46v-5.2h1.98v5.2h-1.98Zm4.43,4.95h-2v-4.49h2v4.49Zm0-4.95h-2v-5.2h2v5.2Zm2.45,26.42h-2v-3.64h2v3.64Zm0-4.1h-2v-1.25h2v1.25Zm0-1.71h-2v-15.21h2v15.21Zm0-15.67h-2v-4.49h2v4.49Zm0-4.95h-2v-5.2h2v5.2Zm0-5.66h-1.89v-10.01h-2.43v10.01h-.69v-10.01h-2.45v10.01h-1.87v-16.33c0-2.79,3.68-3.37,4.66-3.37.71,0,2.79.29,3.91,1.48v.44s0,.08.02.1l.75,1.39v16.29Zm-.31-18.41v-5.37h1.08v5.41c-.23.25-.4.52-.54.85-.12-.33-.31-.62-.54-.89Zm2.77,50.49h-2v-3.64h2v3.64Zm0-4.1h-2v-1.25h2v1.25Zm0-1.71h-2v-15.21h2v15.21Zm0-15.67h-2v-4.49h2v4.49Zm0-4.95h-2v-5.2h2v5.2Zm2.43,26.42h-1.98v-3.64h1.98v3.64Zm2.46,0h-2v-3.64h2v3.64Zm0-4.1h-4.43v-1.25h4.43v1.25Zm0-13.81c-.33-.79-1.06-1.35-1.91-1.48v4.08h1.91v.6h-1.91v8.9h-.62v-8.9h-1.89v-.6h1.89v-4.08c-.85.12-1.56.69-1.89,1.46v-3.08h4.43v3.1Zm-2.46-8.05v4.49h-1.98v-4.49h1.98Zm-1.98-.46v-5.2h1.98v5.2h-1.98Zm4.43,4.95h-2v-4.49h2v4.49Zm0-4.95h-2v-5.2h2v5.2Zm2.45,26.42h-2v-3.64h2v3.64Zm0-4.1h-2v-1.25h2v1.25Zm0-1.71h-2v-15.21h2v15.21Zm0-15.67h-2v-4.49h2v4.49Zm0-4.95h-2v-5.2h2v5.2Zm0-5.66h-1.89v-10.01h-2.43v10.01h-.71v-10.01h-2.43v10.01h-1.87v-16.27l.75-1.5s.02-.06.02-.1v-.33c1.14-1.19,3.2-1.5,3.89-1.5,1,0,4.68.58,4.68,3.37v16.33Zm-4.68-20.16c-1.02,0-2.73.35-3.89,1.31v-4.93h17.58v4.93c-1.17-.96-2.85-1.31-3.89-1.31-1.41,0-4.12.69-4.89,2.68-.79-2-3.48-2.68-4.91-2.68Zm7.12,52.24h-1.98v-3.64h1.98v3.64Zm0-4.1h-1.98v-1.25h1.98v1.25Zm0-1.71h-1.98v-15.21h1.98v15.21Zm0-15.67h-1.98v-4.49h1.98v4.49Zm0-4.95h-1.98v-5.2h1.98v5.2Zm2.46,26.42h-2v-3.64h2v3.64Zm2.46,0h-2v-3.64h2v3.64Zm0-4.1h-4.45v-1.25h4.45v1.25Zm0-13.81c-.33-.79-1.06-1.35-1.94-1.48v4.08h1.94v.6h-1.94v8.9h-.6v-8.9h-1.91v-.6h1.91v-4.08c-.85.12-1.58.69-1.91,1.46v-3.08h4.45v3.1Zm-2.46-8.05v4.49h-2v-4.49h2Zm-2-.46v-5.2h2v5.2h-2Zm4.45,4.95h-2v-4.49h2v4.49Zm0-4.95h-2v-5.2h2v5.2Zm2.43,26.42h-1.98v-3.64h1.98v3.64Zm0-4.1h-1.98v-1.25h1.98v1.25Zm0-1.71h-1.98v-15.21h1.98v15.21Zm0-15.67h-1.98v-4.49h1.98v4.49Zm0-4.95h-1.98v-5.2h1.98v5.2Zm0-5.66h-1.87v-10.01h-2.45v10.01h-.69v-10.01h-2.43v10.01h-1.87v-16.33c0-2.79,3.68-3.37,4.66-3.37.71,0,2.77.31,3.89,1.5v.42s.02.08.04.1l.73,1.35v16.33Zm-.31-18.37v-5.41h1.08v5.41c-.23.27-.4.56-.54.89-.12-.35-.31-.64-.54-.89Zm2.77,50.45h-2v-3.64h2v3.64Zm0-4.1h-2v-1.25h2v1.25Zm0-1.71h-2v-15.21h2v15.21Zm0-15.67h-2v-4.49h2v4.49Zm0-4.95h-2v-5.2h2v5.2Zm2.46,26.42h-2v-3.64h2v3.64Zm2.43,0h-1.98v-3.64h1.98v3.64Zm0-4.1h-4.43v-1.25h4.43v1.25Zm0-13.81c-.33-.79-1.04-1.35-1.91-1.48v4.08h1.91v.6h-1.91v8.9h-.6v-8.9h-1.91v-.6h1.91v-4.08c-.85.12-1.58.69-1.91,1.46v-3.08h4.43v3.1Zm-2.43-8.05v4.49h-2v-4.49h2Zm-2-.46v-5.2h2v5.2h-2Zm4.43,4.95h-1.98v-4.49h1.98v4.49Zm0-4.95h-1.98v-5.2h1.98v5.2Zm2.46,26.42h-2v-3.64h2v3.64Zm0-4.1h-2v-1.25h2v1.25Zm0-1.71h-2v-15.21h2v15.21Zm0-15.67h-2v-4.49h2v4.49Zm0-4.95h-2v-5.2h2v5.2Zm0-5.66h-1.89v-10.01h-2.43v10.01h-.69v-10.01h-2.43v10.01h-1.89v-16.29l.75-1.48s.02-.06.02-.1v-.33c1.12-1.19,3.2-1.5,3.91-1.5.98,0,4.66.58,4.66,3.37v16.33Zm-4.66-20.16c-1.04,0-2.75.37-3.91,1.31v-4.93h17.68v5.01c-1.17-1.02-2.93-1.39-3.99-1.39-1.42,0-4.12.69-4.89,2.68-.77-2-3.47-2.68-4.89-2.68Zm7.12,52.24h-2v-3.64h2v3.64Zm0-4.1h-2v-1.25h2v1.25Zm0-1.71h-2v-15.21h2v15.21Zm0-15.67h-2v-4.49h2v4.49Zm0-4.95h-2v-5.2h2v5.2Zm2.43,26.42h-1.96v-3.64h1.96v3.64Zm2.45,0h-2v-3.64h2v3.64Zm0-4.1h-4.43v-1.25h4.43v1.25Zm0-13.84c-.33-.77-1.06-1.33-1.91-1.46v4.08h1.91v.6h-1.91v8.9h-.6v-8.9h-1.91v-.6h1.91v-4.08c-.87.12-1.58.69-1.91,1.46v-3.08h4.43v3.08Zm-2.45-8.03v4.49h-1.98v-4.49h1.98Zm-1.98-.46v-5.2h1.98v5.2h-1.98Zm4.43,4.95h-2v-4.49h2v4.49Zm0-4.95h-2v-5.2h2v5.2Zm2.46,26.42h-2v-3.64h2v3.64Zm0-4.1h-2v-1.25h2v1.25Zm0-1.71h-2v-15.21h2v15.21Zm0-15.67h-2v-4.49h2v4.49Zm0-4.95h-2v-5.2h2v5.2Zm0-5.66h-1.89v-10.01h-2.43v10.01h-.69v-10.01h-2.43v10.01h-1.89v-16.33c0-2.79,3.68-3.37,4.66-3.37.73,0,2.89.31,3.99,1.58v.33s0,.08.02.1l.62,1.17c.02.06.04.12.04.19v16.33Zm-.23-18.27v-5.51h1.08v5.31c-.27.29-.48.6-.62,1-.12-.29-.27-.56-.46-.79Zm2.66,50.35h-1.98v-3.64h1.98v3.64Zm0-4.1h-1.98v-1.25h1.98v1.25Zm0-1.71h-1.98v-15.21h1.98v15.21Zm0-15.67h-1.98v-4.49h1.98v4.49Zm0-4.95h-1.98v-5.2h1.98v5.2Zm2.46,26.42h-1.96v-3.64h1.96v3.64Zm2.45,0h-2v-3.64h2v3.64Zm0-4.1h-4.45v-1.25h4.45v1.25Zm0-13.81c-.33-.79-1.06-1.35-1.91-1.48v4.08h1.91v.6h-1.91v8.9h-.6v-8.9h-1.93v-.6h1.93v-4.08c-.87.12-1.58.69-1.93,1.46v-3.08h4.45v3.1Zm-2.45-8.05v4.49h-2v-4.49h2Zm-2-.46v-5.2h2v5.2h-2Zm4.45,4.95h-2v-4.49h2v4.49Zm0-4.95h-2v-5.2h2v5.2Zm2.43,26.42h-1.98v-3.64h1.98v3.64Zm0-4.1h-1.98v-1.25h1.98v1.25Zm0-1.71h-1.98v-15.21h1.98v15.21Zm0-15.67h-1.98v-4.49h1.98v4.49Zm0-4.95h-1.98v-5.2h1.98v5.2Zm0-5.66h-1.87v-10.01h-2.43v10.01h-.71v-10.01h-2.43v10.01h-1.87v-16.17s.04-.04.06-.06l.77-1.54s.02-.06.02-.1v-.42c1.14-1.12,3.12-1.41,3.81-1.41.98,0,4.66.58,4.66,3.37v16.33Zm2.45,32.08h-2v-3.64h2v3.64Zm0-4.1h-2v-1.25h2v1.25Zm0-1.71h-2v-15.21h2v15.21Zm0-15.67h-2v-4.49h2v4.49Zm0-4.95h-2v-5.2h2v5.2Zm2.46,26.42h-2v-3.64h2v3.64Zm2.46,0h-2v-3.64h2v3.64Zm0-4.1h-4.45v-1.25h4.45v1.25Zm0-13.84c-.33-.77-1.06-1.33-1.94-1.46v4.08h1.94v.6h-1.94v8.9h-.6v-8.9h-1.91v-.6h1.91v-4.08c-.85.12-1.58.69-1.91,1.46v-3.08h4.45v3.08Zm-2.46-8.03v4.49h-2v-4.49h2Zm-2-.46v-5.2h2v5.2h-2Zm4.45,4.95h-2v-4.49h2v4.49Zm0-4.95h-2v-5.2h2v5.2Zm2.43,26.42h-1.98v-3.64h1.98v3.64Zm0-4.1h-1.98v-1.25h1.98v1.25Zm0-1.71h-1.98v-15.21h1.98v15.21Zm0-15.67h-1.98v-4.49h1.98v4.49Zm0-4.95h-1.98v-5.2h1.98v5.2Zm0-5.66h-1.87v-10.01h-2.43v10.01h-.71v-10.01h-2.43v10.01h-1.89v-16.33c0-2.79,3.68-3.37,4.68-3.37s4.66.58,4.66,3.37v16.33Zm3.45,32.08h-3v-3.64h3v3.64Zm0-4.1h-3v-1.25h3v1.25Zm0-1.71h-3v-15.21h3v15.21Zm0-15.67h-3v-4.49h3v4.49Zm0-4.95h-3v-5.2h3v5.2Zm0-5.66h-3v-16.33c0-2.89-3.45-3.83-5.12-3.83-1.44,0-4.12.69-4.91,2.68-.77-2-3.45-2.68-4.89-2.68-1,0-2.64.35-3.81,1.25v-4.87h21.72v23.78Zm-103.5-68.05h2.16v3.18h-2.16v-3.18Zm-.04,16.31h2.16v3.18h-2.16v-3.18Zm-2.81-36.93l2.68,20.16h-5.35l2.66-20.16Zm2.39,20.62v3.18h-2.16v-3.18h2.16Zm-2.62,0v3.18h-2.16v-3.18h2.16Zm-2.48,4.68h5.41v1.64c-.35-.23-.81-.35-1.29-.35h-.02c-.56,0-1.04.23-1.39.56-.35-.33-.81-.56-1.37-.56h-.02c-.5,0-.94.17-1.31.42v-1.71Zm2.93,11.17v-8.95c.37-.42.89-.52,1.19-.48.52,0,1.02.21,1.29.5v8.93h-2.48Zm2.12.46v3.18h-2.16v-3.18h2.16Zm-5.06-9.38c.27-.29.79-.5,1.31-.5h.02c.27,0,.79.06,1.14.48v8.95h-2.48v-8.93Zm2.43,9.38v3.18h-2.16v-3.18h2.16Zm-4.74-13.13v-3.18h2.16v3.18h-2.16Zm-.06,13.13h2.19v3.18h-2.19v-3.18Zm0,4.66v-1.02h10.05v1.02h-10.05Zm2.19,21.12h-2.19v-7.55h2.19v7.55Zm2.62,0h-2.16v-7.55h2.16v7.55Zm.04-8.01h-3.49v-9.45c.29-.29,1.08-.5,1.87-.5h.04c.71,0,1.31.19,1.58.48v9.47Zm-1.58-10.4h-.04c-.62,0-1.37.12-1.87.4v-1.58h7.45v1.58c-.5-.27-1.25-.4-1.85-.4h-.04c-.79,0-1.44.21-1.83.54-.37-.33-1.02-.54-1.81-.54Zm5.53.96v9.45h-3.5v-9.47c.29-.29.87-.48,1.6-.48h.04c.79,0,1.56.21,1.85.5Zm-1.37,17.46h-2.16v-7.55h2.16v7.55Zm2.62,0h-2.16v-7.55h2.16v7.55Zm2.46,0h-2v-7.55h2v7.55Zm2.43,0h-1.98v-7.55h1.98v7.55Zm2.46,0h-2v-7.55h2v7.55Zm0-8.01h-4.43v-2.95l2.2-3.25,2.23,3.25v2.95Zm2.45,8.01h-2v-7.55h2v7.55Zm2.43,0h-1.98v-7.55h1.98v7.55Zm2.46,0h-1.98v-7.55h1.98v7.55Zm2.46,0h-2v-7.55h2v7.55Zm0-8.01h-4.43v-2.95l2.2-3.25,2.23,3.25v2.95Zm2.43,8.01h-1.98v-7.55h1.98v7.55Zm2.45,0h-2v-7.55h2v7.55Zm2.46,0h-2v-7.55h2v7.55Zm2.43,0h-1.98v-7.55h1.98v7.55Zm0-8.01h-4.43v-2.95l2.23-3.25,2.21,3.25v2.95Zm2.46,8.01h-1.98v-7.55h1.98v7.55Zm2.46,0h-2v-7.55h2v7.55Zm2.45,0h-2v-7.55h2v7.55Zm2.43,0h-1.98v-7.55h1.98v7.55Zm0-8.01h-4.43v-2.95l2.23-3.25,2.21,3.25v2.95Zm2.45,8.01h-2v-7.55h2v7.55Zm2.46,0h-2v-7.55h2v7.55Zm2.43,0h-1.98v-7.55h1.98v7.55Zm2.46,0h-2v-7.55h2v7.55Zm0-8.01h-4.43v-2.95l2.21-3.25,2.23,3.25v2.95Zm2.45,8.01h-2v-7.55h2v7.55Zm2.43,0h-1.98v-7.55h1.98v7.55Zm2.46,0h-2v-7.55h2v7.55Zm2.46,0h-2v-7.55h2v7.55Zm0-8.01h-4.45v-2.95l2.23-3.25,2.23,3.25v2.95Zm2.43,8.01h-1.98v-7.55h1.98v7.55Zm2.54,0h-2.08v-7.55h2.08v7.55Zm2.46,0h-2v-7.55h2v7.55Zm2.43,0h-1.98v-7.55h1.98v7.55Zm0-8.01h-4.43v-2.95l2.23-3.25,2.21,3.25v2.95Zm2.46,8.01h-2v-7.55h2v7.55Zm2.45,0h-2v-7.55h2v7.55Zm2.46,0h-2v-7.55h2v7.55Zm2.43,0h-1.98v-7.55h1.98v7.55Zm0-8.01h-4.43v-2.95l2.23-3.25,2.21,3.25v2.95Zm2.37,8.01h-1.91v-7.55h1.91v7.55Zm2.52,0h-2.06v-7.55h2.06v7.55Zm2.46,0h-2v-7.55h2v7.55Zm2.45,0h-2v-7.55h2v7.55Zm0-8.01h-4.45v-2.95l2.23-3.25,2.23,3.25v2.95Zm2.46,8.01h-2v-7.55h2v7.55Zm2.43,0h-1.98v-7.55h1.98v7.55Zm2.46,0h-2v-7.55h2v7.55Zm2.45,0h-2v-7.55h2v7.55Zm0-8.01h-4.45v-2.95l2.23-3.25,2.23,3.25v2.95Zm5.8,8.01h-5.35v-7.55h5.35v7.55Zm0-8.01h-5.35v-3.02s-.02-.1-.04-.12l-2.46-3.6c-.08-.12-.29-.12-.37,0l-2.46,3.6s-.04.08-.04.12v3.02h-4.43v-3.02s-.02-.1-.04-.12l-2.46-3.6c-.08-.12-.29-.12-.37,0l-2.46,3.6s-.04.08-.04.12v3.02h-4.43v-3.02s-.02-.1-.04-.12l-2.43-3.6c-.08-.12-.29-.12-.37,0l-2.46,3.6s-.04.08-.04.12v3.02h-4.45v-3.02s0-.1-.04-.12l-2.43-3.6c-.08-.12-.29-.12-.37,0l-2.46,3.6s-.04.08-.04.12v3.02h-4.51v-3.02s-.02-.1-.04-.12l-2.46-3.6c-.08-.12-.29-.12-.37,0l-2.46,3.6s-.04.08-.04.12v3.02h-4.43v-3.02s-.02-.1-.04-.12l-2.46-3.6c-.08-.12-.29-.12-.37,0l-2.43,3.6s-.04.08-.04.12v3.02h-4.45v-3.02s0-.1-.04-.12l-2.43-3.6c-.08-.12-.29-.12-.37,0l-2.45,3.6s-.04.08-.04.12v3.02h-4.43v-3.02s-.02-.1-.04-.12l-2.46-3.6c-.08-.12-.29-.12-.37,0l-2.45,3.6s-.04.08-.04.12v3.02h-4.43v-3.02s-.02-.1-.04-.12l-2.45-3.6c-.08-.12-.29-.12-.37,0l-2.45,3.6s-.04.08-.04.12v3.02h-4.43v-3.02s-.02-.1-.04-.12l-2.45-3.6c-.08-.12-.29-.12-.37,0l-2.43,3.6s-.04.08-.04.12v3.02h-3.25v-12.65h1.02c.12,0,.23-.1.23-.23v-5.12c0-.12-.1-.23-.23-.23h-2.04v-12.21h2.1c.12,0,.23-.1.23-.23v-1.6h100.86v32.27Zm33.39-94.02l2.29,6.35h-2.29v-6.35Zm0,6.8h3.47v3.99h-3.47v-3.99Zm0,5.2h2.39v9.13h-2.39v-9.13Zm0,9.59h3.47v3.99h-3.47v-3.99Zm0,5.2h2.39v6.55h-2.39v-6.55Zm-.48-26.8v6.35h-2.29l2.29-6.35Zm.02,21.14h-2.41v-9.13h2.39l.02,9.13Zm-3.5-10.34v-3.99h3.48v3.99h-3.48Zm0,14.79v-3.99h3.5v3.99h-3.5Zm3.5,1.21v6.55h-2.41v-6.55h2.41Zm-11.28-69.11v-1.77h4.6v12.23h-1.85v-6.18c0-2.39-1.29-3.41-2.75-4.29Zm0-14.13h-1.37l-1.04-9.24,2.41,9.24Zm-2.37-10.94h.94v.75h-.75l-.19-.75Zm2.5,11.4l1.44,5.49h-2.27l-.6-5.49h1.44Zm1.56,5.95l1.44,5.49h-3.16l-.6-5.49h2.33Zm-1.69,14.54h2.29v3.64h-2.29v-3.64Zm0-.46v-5.8c1.48.92,2.29,1.85,2.29,3.72v2.08h-2.29Zm4.51-8.59h-.94l-5.64-21.64h.69l5.89,21.64Zm-5.95-24.03v.73h-1.06l-.19-.73h1.25Zm-1.33,3.85l.94,8.28h-.94v-8.28Zm0,8.74h1l.6,5.49h-1.6v-5.49Zm0,5.95h1.66l.6,5.49h-2.27v-5.49Zm0,5.95h2.31v1.77c-.94.56-1.81,1.19-2.31,2.18v-3.95Zm0,6.05c0-1.87.83-2.81,2.31-3.72v5.8h-2.31v-2.08Zm0,2.54h2.31v3.64h-2.31v-3.64Zm0,4.1h8.76v.83h-8.76v-.83Zm8.76,1.29v3.95h-1.83v-3.95h1.83Zm-2.29,0v3.95h-1.85v-3.95h1.85Zm-2.31,0v3.95h-1.85v-3.95h1.85Zm-4.16,0h1.85v3.95h-1.85v-3.95Zm0,4.41h8.76v.83h-8.76v-.83Zm6.16,4.37v-1.58h2.6v1.58h-2.6Zm2.6.46v19.99h-1.58v-19.99h1.58Zm-2.83-2.5c-.12,0-.23.08-.23.23v2.04c0,.12.1.23.23.23h.79v19.99h-1.06v-10.44h-1.79v10.44h-.62v-10.44h-1.58v-.62h1.58v-7.3c-.73.1-1.29.62-1.58,1.29v-6.45h7.09v1.04h-2.83Zm-5.93-1.02h1.21v23.49h-1.21v-23.49Zm0,23.97h8.76v.83h-8.76v-.83Zm8.76,1.29v3.95h-1.83v-3.95h1.83Zm-2.29,0v3.95h-1.85v-3.95h1.85Zm-2.31,0v3.95h-1.85v-3.95h1.85Zm-4.16,0h1.85v3.95h-1.85v-3.95Zm0,4.41h8.76v.83h-8.76v-.83Zm5.35,16.64v11.42h-.6v-11.42h-2.1v-.6h2.1v-8.78c-.98.1-1.73.77-2.1,1.64v-4.49h6.12v23.65h-1.08v-11.42h-2.33Zm-2.7-12.69v-2.66h6.12v2.66h-6.12Zm-2.64-2.66h2.19v1.12h-2.19v-1.12Zm0,1.58h2.19v1.08h-2.19v-1.08Zm0,1.54h2.19v1.08h-2.19v-1.08Zm0,1.54h2.19v22.12h-2.19v-22.12Zm0,23.86h2.19v4.2h-2.19v-4.2Zm0,5.95h2v4.54c-.81.33-1.54.87-2,1.62v-6.16Zm0,7.74c0-1.39.94-2.23,2-2.73v23.47h-2v-20.74Zm0,21.2h2v.81h-2v-.81Zm0,1.27h2v5.55c-.81.35-1.54.87-2,1.62v-7.18Zm0,8.78c0-1.41.94-2.25,2-2.75v23.47h-2v-20.72Zm0,21.18h2v.81h-2v-.81Zm0,1.29h2v2.27c-.81.35-1.54.87-2,1.62v-3.89Zm0,5.49c0-1.39.94-2.25,2-2.73v19.06h-2v-16.33Zm0,16.79h2v5.22h-2v-5.22Zm0,5.68h2v4.49h-2v-4.49Zm0,4.95h2v15.23h-2v-15.23Zm-1.89-191.4l-.62,5.49h-2.25l1.44-5.49h1.44Zm-1.33-.46l2.43-9.24-1.04,9.24h-1.39Zm.67,6.41l-.62,5.49h-3.14l1.44-5.49h2.33Zm-.19,14.54h2.29v3.64h-2.29v-3.64Zm0-.46v-5.8c1.48.92,2.29,1.85,2.29,3.72v2.08h-2.29Zm0-6.37v-1.77h2.29v3.95c-.5-1-1.35-1.62-2.29-2.18Zm.02-2.23l.62-5.49h1.64v5.49h-2.27Zm.67-5.95l.62-5.49h.98v5.49h-1.6Zm.69-5.95l.91-8.28v8.28h-.91Zm-.42-12.13h1.27l-.19.73h-1.08v-.73Zm0,1.19h.96l-.19.75h-.77v-.75Zm-.04,1.21h.69l-5.66,21.64h-.94l5.91-21.64Zm-5.97,22.09h4.6v1.77c-1.46.87-2.75,1.89-2.75,4.29v6.18h-1.85v-12.23Zm2.31,8.13v-2.08c0-1.87.81-2.81,2.29-3.72v5.8h-2.29Zm2.29.46v3.64h-2.29v-3.64h2.29Zm-6.01,4.1h8.76v.83h-8.76v-.83Zm8.76,1.29v3.95h-1.83v-3.95h1.83Zm-2.29,0v3.95h-1.85v-3.95h1.85Zm-2.31,0v3.95h-1.85v-3.95h1.85Zm-4.16,0h1.85v3.95h-1.85v-3.95Zm0,4.41h8.76v.83h-8.76v-.83Zm8.76,1.31v23.49h-1.21v-23.49h1.21Zm-8.76-.02h7.09v23.53h-.06v-10.44h-1.81v10.44h-.6v-10.44h-1.79v10.44h-.77v-19.99h.79c.12,0,.23-.1.23-.23v-2.04c0-.15-.1-.23-.23-.23h-2.85v-1.04Zm0,1.5h2.62v1.58h-2.62v-1.58Zm0,2.04h1.6v19.99h-1.6v-19.99Zm0,20.45h8.76v.83h-8.76v-.83Zm8.76,1.29v3.95h-1.83v-3.95h1.83Zm-2.29,0v3.95h-1.85v-3.95h1.85Zm-2.31,0v3.95h-1.85v-3.95h1.85Zm-4.16,0h1.85v3.95h-1.85v-3.95Zm0,4.41h8.76v.83h-8.76v-.83Zm6.6,5.49v-1.08h2.16v1.08h-2.16Zm2.16.46v22.12h-2.16v-22.12h2.16Zm-2.16-2v-1.08h2.16v1.08h-2.16Zm0-1.54v-1.12h2.16v1.12h-2.16Zm-6.6-1.12h6.14v2.66h-6.14v-2.66Zm0,3.12h6.14v4.54c-.35-.89-1.1-1.58-2.1-1.69v8.78h2.1v.6h-2.1v11.42h-.6v-11.42h-2.35v11.42h-1.08v-23.65Zm-5.26-9.72l2.31,6.37h-2.31v-6.37Zm0,6.82h3.5v3.99h-3.5v-3.99Zm0,5.2h2.39v9.13h-2.39v-9.13Zm0,9.59h3.5v3.99h-3.5v-3.99Zm0,5.2h2.39v6.55h-2.39v-6.55Zm-.46-26.82v6.37h-2.31l2.31-6.37Zm-3.49,10.82v-3.99h3.49v3.99h-3.49Zm3.49,1.21v9.13h-2.39v-9.13h2.39Zm-3.49,13.59v-3.99h3.49v3.99h-3.49Zm3.49,1.21v6.55h-2.39v-6.55h2.39Zm-3.49,7.01h17.97v.83h-17.97v-.83Zm17.97,1.29v4.2h-2.16v-4.2h2.16Zm-2.62,0v4.2h-2.18v-4.2h2.18Zm-2.64,0v4.2h-2.16v-4.2h2.16Zm-2.62,0v4.2h-2.19v-4.2h2.19Zm-2.64,0v4.2h-2.19v-4.2h2.19Zm-2.64,0v4.2h-2.16v-4.2h2.16Zm-4.81,0h2.18v4.2h-2.18v-4.2Zm3.12,117.25h-3.12v-1.25h3.12v1.25Zm0-1.71h-3.12v-48.14h3.12v48.14Zm0-48.62h-3.12v-.81h3.12v.81Zm0-1.27h-3.12v-29.5h3.12v29.5Zm0-29.96h-3.12v-.81h3.12v.81Zm0-1.27h-3.12v-28.48h3.12v28.48Zm-3.12-28.94v-.83h17.97v.83h-17.97Zm16,94.37v-4.49h1.98v4.49h-1.98Zm1.98.46v15.23h-1.98v-15.23h1.98Zm-1.98-5.41v-5.22h1.98v5.22h-1.98Zm0-5.68v-19.06c1.04.48,1.98,1.33,1.98,2.73v16.33h-1.98Zm0-19.56v-2.27h1.98v3.89c-.44-.75-1.19-1.27-1.98-1.62Zm0-2.75v-.81h1.98v.81h-1.98Zm0-1.27v-23.47c1.04.5,1.98,1.33,1.98,2.75v20.72h-1.98Zm0-23.95v-5.55h1.98v7.18c-.44-.75-1.19-1.27-1.98-1.62Zm0-6.01v-.81h1.98v.81h-1.98Zm0-1.27v-23.47c1.04.48,1.98,1.33,1.98,2.73v20.74h-1.98Zm0-23.95v-4.54h1.98v6.16c-.44-.75-1.19-1.29-1.98-1.62Zm-.46,11.82v.62h-2.29v11.5h-.6v-11.5h-2.35v11.5h-1.64v-20.74c0-2.79,3.68-3.35,4.66-3.35.42,0,1.31.12,2.23.44v5.31c-.12-1.31-1-2.41-2.29-2.56v8.78h2.29Zm0,31.33v.6h-2.29v11.42h-.6v-11.42h-2.35v11.42h-1.64v-20.72c0-2.79,3.68-3.37,4.66-3.37.42,0,1.31.12,2.23.46v5.39c-.12-1.33-1-2.41-2.29-2.56v8.78h2.29Zm0,25.57v.67h-2.1v9.36h-.65v-9.36h-2.31v9.36h-1.83v-16.33c0-2.79,3.68-3.35,4.66-3.35.42,0,1.31.1,2.23.44v6.47c-.35-.89-1.14-1.54-2.1-1.66v4.41h2.1Zm0,26.26v.65h-2.1v9.45h-.65v-9.45h-1.71v-.65h1.71v-4.41c-.69.1-1.29.46-1.71.98v-1.71h4.45v2.39c-.35-.89-1.14-1.54-2.1-1.66v4.41h2.1Zm-2.45-10.09v4.49h-2v-4.49h2Zm-2-.46v-5.22h2v5.22h-2Zm2.45,4.95v-4.49h2v4.49h-2Zm0-4.95v-5.22h2v5.22h-2Zm-2.91,10.55v.65h-.15v9.45h-1.83v-15.23h1.98v2.56c-.06.25-.15.5-.15.77v1.81h.15Zm-1.98-5.6v-4.49h1.98v4.49h-1.98Zm0-4.95v-5.22h1.98v5.22h-1.98Zm4.66-25.82c-1.66,0-5.12.94-5.12,3.81v16.33h-4.6v-21.82h11.94v2.08c-.81-.27-1.62-.4-2.23-.4Zm-9.72,30.77v-4.49h4.6v4.49h-4.6Zm4.6.46v15.23h-4.6v-15.23h4.6Zm-4.6-5.41v-5.22h4.6v5.22h-4.6Zm0-27.98v-.81h11.94v.81h-11.94Zm9.72-25.82c-1.66,0-5.12.94-5.12,3.83v20.72h-4.6v-29.5h11.94v5.37c-.81-.29-1.62-.42-2.23-.42Zm-9.72-5.41v-.81h11.94v.81h-11.94Zm9.72-25.82c-1.66,0-5.12.94-5.12,3.81v20.74h-4.6v-28.48h11.94v4.35c-.81-.29-1.62-.42-2.23-.42Zm19.51,107.37h-29.23v-1.25h29.23v1.25Zm-11.94-14.65v-2.29h4.43v1.79c-.42-.56-1.02-.96-1.73-1.06v4.41h1.73v.65h-1.73v9.45h-.65v-9.45h-2.06v-.65h2.06v-4.41c-.94.12-1.69.73-2.06,1.56Zm0-26.26v-6.37c.89-.31,1.81-.44,2.23-.44.98,0,4.66.56,4.66,3.35v16.33h-1.91v-9.36h-2.27v9.36h-.65v-9.36h-2.06v-.67h2.06v-4.41c-.94.12-1.69.73-2.06,1.56Zm4.89,29.75v-.65h.08v-1.81c0-.15-.04-.29-.08-.44v-2.89h2v15.23h-1.91v-9.45h-.08Zm0-6.24v-4.49h2v4.49h-2Zm0-4.95v-5.22h2v5.22h-2Zm-2.43,0v-5.22h1.98v5.22h-1.98Zm1.98.46v4.49h-1.98v-4.49h1.98Zm-2.43-5.68v5.22h-2v-5.22h2Zm0,5.68v4.49h-2v-4.49h2Zm9.94,20.18h-4.6v-15.23h4.6v15.23Zm0-15.69h-4.6v-4.49h4.6v4.49Zm0-4.95h-4.6v-5.22h4.6v5.22Zm0-5.68h-4.6v-16.33c0-2.87-3.45-3.81-5.12-3.81-.6,0-1.42.12-2.23.4v-2.08h11.94v21.82Zm0-22.3h-11.94v-.81h11.94v.81Zm-11.94-19.6v-5.31c.89-.33,1.81-.46,2.23-.46.98,0,4.66.58,4.66,3.37v20.72h-1.66v-11.42h-2.33v11.42h-.6v-11.42h-2.29v-.6h2.29v-8.78c-1.25.15-2.14,1.19-2.29,2.48Zm11.94,18.33h-4.6v-20.72c0-2.89-3.45-3.83-5.12-3.83-.6,0-1.42.12-2.23.42v-5.37h11.94v29.5Zm0-29.96h-11.94v-.81h11.94v.81Zm-11.94-19.7v-5.2c.89-.33,1.81-.46,2.23-.46.98,0,4.66.56,4.66,3.35v20.74h-1.66v-11.5h-2.33v11.5h-.6v-11.5h-2.29v-.62h2.29v-8.78c-1.25.15-2.14,1.21-2.29,2.48Zm11.94,18.43h-4.6v-20.74c0-2.87-3.45-3.81-5.12-3.81-.6,0-1.42.12-2.23.42v-4.35h11.94v28.48Zm3.58,82.82h-3.12v-1.25h3.12v1.25Zm0-1.71h-3.12v-48.14h3.12v48.14Zm0-48.62h-3.12v-.81h3.12v.81Zm0-1.27h-3.12v-29.5h3.12v29.5Zm0-29.96h-3.12v-.81h3.12v.81Zm0-1.27h-3.12v-28.48h3.12v28.48Zm0-28.94h-17.98v-.83h17.98v.83Zm-15.33-1.29v-4.2h2.16v4.2h-2.16Zm2.62,0v-4.2h2.19v4.2h-2.19Zm2.64,0v-4.2h2.18v4.2h-2.18Zm2.64,0v-4.2h2.16v4.2h-2.16Zm2.62,0v-4.2h2.18v4.2h-2.18Zm4.81,0h-2.16v-4.2h2.16v4.2Zm0-4.66h-17.98v-.83h17.98v.83Zm33.29,104.42h2v15.21h-2v-15.21Zm0,15.67h2v1.25h-2v-1.25Zm-29.83,5.35h-3v-3.64h3v3.64Zm0-4.1h-2.93v-1.25h2.93v1.25Zm0-1.71h-3v-15.21h3v15.21Zm0-15.67h-3v-4.49h3v4.49Zm0-4.95h-3v-5.2h3v5.2Zm2.45,26.42h-1.98v-3.64h1.98v3.64Zm0-4.1h-1.98v-1.25h1.98v1.25Zm0-1.71h-1.98v-15.21h1.98v15.21Zm0-15.67h-1.98v-4.49h1.98v4.49Zm0-4.95h-1.98v-5.2h1.98v5.2Zm2.46,26.42h-2v-3.64h2v3.64Zm2.46,0h-2v-3.64h2v3.64Zm0-4.1h-4.45v-1.25h4.45v1.25Zm0-13.84c-.33-.77-1.06-1.33-1.91-1.46v4.08h1.91v.6h-1.91v8.9h-.6v-8.9h-1.93v-.6h1.93v-4.08c-.87.12-1.6.69-1.93,1.48v-3.1h4.45v3.08Zm-2.46-8.03v4.49h-2v-4.49h2Zm-2-.46v-5.2h2v5.2h-2Zm4.45,4.95h-2v-4.49h2v4.49Zm0-4.95h-2v-5.2h2v5.2Zm2.43,26.42h-1.98v-3.64h1.98v3.64Zm0-4.1h-1.98v-1.25h1.98v1.25Zm0-1.71h-1.98v-15.21h1.98v15.21Zm0-15.67h-1.98v-4.49h1.98v4.49Zm0-4.95h-1.98v-5.2h1.98v5.2Zm0-5.66h-1.87v-10.01h-2.43v10.01h-.69v-10.01h-2.45v10.01h-1.87v-16.33c0-2.79,3.68-3.37,4.66-3.37s4.66.58,4.66,3.37v16.33Zm2.45,32.08h-2v-3.64h2v3.64Zm0-4.1h-2v-1.25h2v1.25Zm0-1.71h-2v-15.21h2v15.21Zm0-15.67h-2v-4.49h2v4.49Zm0-4.95h-2v-5.2h2v5.2Zm2.46,26.42h-2v-3.64h2v3.64Zm2.41,0h-1.95v-3.64h1.95v3.64Zm.02-4.1h-4.43v-1.25h4.43v1.25Zm0-13.84c-.33-.77-1.04-1.33-1.91-1.46v4.08h1.91v.6h-1.91v8.9h-.6v-8.9h-1.91v-.6h1.91v-4.08c-.85.12-1.58.69-1.91,1.48v-3.1h4.43v3.08Zm-2.43-8.03v4.49h-2v-4.49h2Zm-2-.46v-5.2h2v5.2h-2Zm4.43,4.95h-1.98v-4.49h1.98v4.49Zm0-4.95h-1.98v-5.2h1.98v5.2Zm2.46,26.42h-2v-3.64h2v3.64Zm0-4.1h-2v-1.25h2v1.25Zm0-1.71h-2v-15.21h2v15.21Zm0-15.67h-2v-4.49h2v4.49Zm0-4.95h-2v-5.2h2v5.2Zm2.45,26.42h-2v-3.64h2v3.64Zm0-4.1h-2v-1.25h2v1.25Zm0-1.71h-2v-15.21h2v15.21Zm0-15.67h-2v-4.49h2v4.49Zm0-4.95h-2v-5.2h2v5.2Zm2.43,26.42h-1.98v-3.64h1.98v3.64Zm2.43,0h-1.98v-3.64h1.98v3.64Zm.02-4.1h-4.43v-1.25h4.43v1.25Zm0-13.84c-.33-.77-1.06-1.33-1.91-1.46v4.08h1.91v.6h-1.91v8.9h-.6v-8.9h-1.91v-.6h1.91v-4.08c-.87.12-1.58.69-1.91,1.46v-3.08h4.43v3.08Zm-2.46-8.03v4.49h-1.98v-4.49h1.98Zm-1.98-.46v-5.2h1.98v5.2h-1.98Zm4.43,4.95h-2v-4.49h2v4.49Zm0-4.95h-2v-5.2h2v5.2Zm2.43,22.32h-1.98v-1.25h1.98v1.25Zm0-1.71h-1.98v-15.21h1.98v15.21Zm0-15.67h-1.98v-4.49h1.98v4.49Zm0-4.95h-1.98v-5.2h1.98v5.2Zm-8.63-23.45v-.35c1.1-1.25,3.27-1.56,3.97-1.56.98,0,4.66.58,4.66,3.37v16.33h-1.87v-10.01h-2.43v10.01h-.69v-10.01h-2.43v10.01h-1.89v-16.46s.02-.02.02-.02l.62-1.21s.04-.06.04-.1Zm-1.54-5.99h1.08v5.47c-.21.23-.35.5-.46.79-.15-.35-.35-.67-.62-.94v-5.33Zm.33,7.55l.06.06v16.17h-1.87v-10.01h-2.43v10.01h-.71v-10.01h-2.43v10.01h-1.89v-16.33c0-2.79,3.68-3.37,4.68-3.37.69,0,2.66.29,3.81,1.41v.42s0,.06.02.1l.77,1.54Zm-.79-7.55v4.89c-1.14-.92-2.81-1.27-3.81-1.27-1.44,0-4.14.69-4.91,2.68-.77-2-3.47-2.68-4.89-2.68-1.69,0-5.14.94-5.14,3.83v16.33h-3v-23.78h21.74Zm18.37-9.74h2.06v7.55h-2.06v-7.55Zm-.46,7.55h-2v-7.55h2v7.55Zm-4.45-10.96l2.23-3.25,2.23,3.25v2.95h-4.45v-2.95Zm0,3.41h2v7.55h-2v-7.55Zm-2.43,0h1.98v7.55h-1.98v-7.55Zm-2.45,0h2v7.55h-2v-7.55Zm-.46,7.55h-2v-7.55h2v7.55Zm-4.45-10.96l2.23-3.25,2.23,3.25v2.95h-4.45v-2.95Zm0,3.41h2v7.55h-2v-7.55Zm-2.35,0h1.89v7.55h-1.89v-7.55Zm-2.54,0h2.08v7.55h-2.08v-7.55Zm-.46,7.55h-1.98v-7.55h1.98v7.55Zm-4.43-10.96l2.23-3.25,2.21,3.25v2.95h-4.43v-2.95Zm0,3.41h2v7.55h-2v-7.55Zm-2.46,0h2v7.55h-2v-7.55Zm-2.45,0h2v7.55h-2v-7.55Zm-.46,7.55h-1.98v-7.55h1.98v7.55Zm-4.43-10.96l2.23-3.25,2.21,3.25v2.95h-4.43v-2.95Zm0,3.41h2v7.55h-2v-7.55Zm-.46,0v7.55h-5.37v-7.55h5.37Zm54.9-34.54h2.16v3.18h-2.16v-3.18Zm-2.85-20.62l2.66,20.16h-5.35l2.68-20.16Zm2.39,20.62v3.18h-2.16v-3.18h2.16Zm-2.62,0v3.18h-2.16v-3.18h2.16Zm-2.48,4.68h5.41v1.71c-.35-.25-.81-.42-1.31-.42h-.02c-.56,0-1.02.23-1.37.56-.35-.33-.83-.56-1.39-.56h-.02c-.48,0-.91.17-1.29.42v-1.71Zm2.93,11.17v-8.95c.35-.42.87-.48,1.14-.48h.02c.52,0,1.04.21,1.31.5v8.93h-2.48Zm2.21.46v3.18h-2.16v-3.18h2.16Zm-5.14-9.38c.27-.29.77-.5,1.29-.5h.02c.27,0,.79.06,1.17.48v8.95h-2.48v-8.93Zm2.52,9.38v3.18h-2.16v-3.18h2.16Zm-4.85-13.13v-3.18h2.19v3.18h-2.19Zm.06,13.13h2.16v3.18h-2.16v-3.18Zm10.03,4.66h-10.03v-1.02h10.03v1.02Zm0-1.48h-2.16v-3.18h2.16v3.18Zm-27.75,38.55v7.68c.25-2.62.69-5.18,1.31-7.68h-1.31Z" fill="#1c1a1a"/>
            <path d="m276.28,134.11v-5.09c0-1.1-.73-2.07-1.8-2.22v7.31h1.8Z" fill="#1c1a1a"/>
            <path d="m264.23,134.11h1.8v-7.31c-1.07.15-1.8,1.13-1.8,2.22v5.09Z" fill="#1c1a1a"/>
            <path d="m268.44,129.02c0-1.1-.73-2.07-1.8-2.22v7.31h1.8v-5.09Z" fill="#1c1a1a"/>
            <path d="m273.88,126.76v.03c.09-.03.18-.03.3-.03h-.3Z" fill="#1c1a1a"/>
            <path d="m274.49,126.76h-.3c.12,0,.21,0,.3.03v-.03Z" fill="#1c1a1a"/>
            <path d="m278.3,161.39c0-1.43-.94-2.65-2.32-2.8v8.78h2.32v-5.97Z" fill="#1c1a1a"/>
            <path d="m264.84,158.58c-1.37.15-2.35,1.37-2.35,2.8v5.97h2.35v-8.78Z" fill="#1c1a1a"/>
            <path d="m278.3,197.47c0-1.43-.94-2.65-2.32-2.8v8.78h2.32v-5.97Z" fill="#1c1a1a"/>
            <path d="m264.84,194.67c-1.37.15-2.35,1.37-2.35,2.8v5.97h2.35v-8.78Z" fill="#1c1a1a"/>
            <path d="m278.3,228.8c0-1.43-.94-2.65-2.32-2.8v8.78h2.32v-5.97Z" fill="#1c1a1a"/>
            <path d="m264.84,225.99c-1.37.15-2.35,1.37-2.35,2.8v5.97h2.35v-8.78Z" fill="#1c1a1a"/>
            <path d="m275.67,158.55c.09,0,.21,0,.3.03v-.03h-.3Z" fill="#1c1a1a"/>
          </g>
          <g>
            <path d="m147.74,165.81l1.3,3.97c.25.76.96,1.28,1.77,1.28h4.18s-3.37,2.45-3.37,2.45c-.65.47-.92,1.31-.67,2.07l1.3,3.97-3.38-2.45c-.65-.47-1.53-.47-2.18,0l-3.37,2.46,1.28-3.98c.25-.76-.03-1.6-.68-2.07l-3.38-2.45h4.18c.8,0,1.51-.53,1.76-1.29l1.28-3.98Z" fill="#1c1a1a"/>
            <path d="m159.88,140.97l1.31,3.97c.25.76.97,1.28,1.77,1.27l4.18-.02-3.37,2.47c-.65.47-.92,1.31-.67,2.08l1.31,3.97-3.39-2.44c-.65-.47-1.53-.47-2.18,0l-3.37,2.47,1.28-3.98c.25-.77-.03-1.6-.68-2.07l-3.39-2.44,4.18-.02c.8,0,1.51-.52,1.76-1.29l1.28-3.98Z" fill="#1c1a1a"/>
            <path d="m176.96,120.7l1.31,3.97c.25.76.97,1.28,1.77,1.27l4.18-.02-3.37,2.47c-.65.48-.91,1.31-.66,2.08l1.31,3.97-3.39-2.44c-.65-.47-1.53-.46-2.18.01l-3.37,2.47,1.27-3.98c.24-.77-.03-1.6-.69-2.07l-3.39-2.44,4.18-.02c.8,0,1.51-.53,1.76-1.29l1.27-3.98Z" fill="#1c1a1a"/>
            <path d="m199.16,105.46l1.32,3.96c.25.76.97,1.27,1.77,1.27l4.18-.03-3.36,2.48c-.65.48-.91,1.32-.66,2.08l1.32,3.96-3.4-2.43c-.65-.47-1.53-.46-2.18.02l-3.36,2.48,1.26-3.98c.24-.77-.04-1.6-.69-2.07l-3.4-2.43,4.18-.03c.8,0,1.51-.53,1.75-1.29l1.26-3.98Z" fill="#1c1a1a"/>
            <path d="m222.51,96.71l1.33,3.96c.26.76.97,1.27,1.78,1.26l4.18-.04-3.36,2.49c-.65.48-.91,1.32-.65,2.08l1.33,3.96-3.4-2.42c-.65-.47-1.53-.46-2.18.02l-3.36,2.49,1.25-3.99c.24-.77-.04-1.6-.69-2.07l-3.4-2.42,4.18-.04c.8,0,1.51-.53,1.75-1.3l1.25-3.99Z" fill="#1c1a1a"/>
            <path d="m247.62,93.64l1.33,3.96c.26.76.97,1.27,1.78,1.26l4.18-.04-3.36,2.49c-.65.48-.91,1.32-.65,2.08l1.33,3.96-3.4-2.42c-.65-.47-1.53-.46-2.18.02l-3.36,2.49,1.25-3.99c.24-.77-.04-1.6-.69-2.07l-3.4-2.42,4.18-.04c.8,0,1.51-.53,1.75-1.3l1.25-3.99Z" fill="#1c1a1a"/>
          </g>
        </g>
        <path d="m379.2,230.38c-25.75,0-46.63,20.88-46.63,46.63s20.88,46.63,46.63,46.63,46.63-20.88,46.63-46.63-20.88-46.63-46.63-46.63Zm19.63,58.83c0,.4.28.74.67.83l1.67.37c.3.07.51.33.51.64,0,.36-.29.66-.66.66h-10.57c-.39,0-.7-.31-.7-.7,0-.37.28-.67.65-.7l.66-.05c.68-.05,1.21-.61,1.22-1.3l.33-21.11-11.5,22.23c-.3.58-1.13.55-1.39-.05l-8.77-20.39c-.16-.37-.7-.26-.72.14-.11,3.3-.67,10.51-3.48,14.88-3.82,5.95-7.43,7.94-15.65,7.26-8.22-.68-14.94-9.28-13.32-17.22,1.63-7.94,6.34-12.01,12.29-13.35,5.95-1.34,10.09,1.68,10.09,1.68l.87.65c.42.31,1.01.01,1.01-.51v-1.23c0-.38.3-.68.68-.68s.68.31.68.69l-.08,11.45c0,.31-.29.55-.6.49-.22-.04-.39-.22-.42-.45l-.47-4.1c-.59-5.34-7.12-8.25-11.77-6.34-4.64,1.91-6.22,6.4-6.64,13.54-.42,7.13,7.41,16.84,16.9,12.47,7.91-3.64,8.45-19.23,8.41-24.32,0-.93-.68-1.71-1.6-1.86l-.75-.12c-.25-.07-.43-.3-.43-.56,0-.32.26-.58.58-.58h6.82l9.22,21.67,11.05-21.02c.2-.38.6-.63,1.03-.63l6.52-.1c.33,0,.59.27.59.59,0,.31-.24.57-.55.59l-2.01.16c-.38.04-.68.36-.67.74l.28,25.65Zm9.41,2.36h-1.93c-.25,0-.46-.2-.46-.46s.22-.47.48-.46c.69.03,2.27.06,3.31-1.74,1.11-1.92,2.32-9.6-1.68-12.14-.44-.28-.94-.46-1.45-.57-.52-.11-1.29-.42-.24-1.2,1.47-1.09,3.82-2.6,3.27-7.29-.19-1.63-.47-2.74-.75-3.5-.36-.97-1.24-1.64-2.26-1.72l-.82-.07c-.31-.03-.55-.28-.55-.59,0-.33.27-.59.59-.59l1.97.03s5.36.1,7.31,4.07c1.16,2.36.61,5.18-1.23,7.05-1.03,1.05-2.62,2.19-5.04,3.16,0,0,8.26,2.02,8.48,7.52.22,5.49-4.58,8.47-9.01,8.49Z" fill="#1c1a1a"/>
        <g>
          <g>
            <path d="m115.24,195.95l-5.2-.12-.02.42c1.64,2.08,2.68,5.51,2.62,8.51-.1,4.72-3.58,8.88-8.66,8.76-5.1-.12-8.36-4.18-8.26-8.82.04-2.18.83-5.08,2.45-6.93l-.08-.25-4.1-2.54c-2.08,2.54-3.33,6.14-3.41,9.86-.19,7.95,5.14,14.38,13.34,14.56,8.07.19,13.61-5.97,13.79-13.63.08-3.89-.92-7.59-2.48-9.82Z" fill="#1c1a1a"/>
            <path d="m111.64,162.43c-7.57-1.87-14.6,2.54-16.52,10.28-1.87,7.61,2.27,14.94,9.84,16.81,7.57,1.87,14.6-2.54,16.52-10.3,1.87-7.57-2.23-14.92-9.84-16.79Zm4.83,15.54c-1.12,4.51-5.47,6.97-10.09,5.83-4.66-1.14-7.34-5.28-6.24-9.84,1.08-4.33,5.37-6.99,10.09-5.83,4.7,1.17,7.32,5.45,6.24,9.84Z" fill="#1c1a1a"/>
            <path d="m136.83,140.52l-23.38-11.92-2.62,5.14,13.75,7.03-20.72,6.6-.75,1.46,23.38,11.94,2.62-5.14-13.36-6.82,20.3-6.76.77-1.52Z" fill="#1c1a1a"/>
            <path d="m148.88,113.02l-.27.31c.02,2.64-1.27,5.99-3.16,8.32-2.98,3.64-8.28,4.81-12.19,1.6-3.95-3.22-4.06-8.45-1.12-12.05,1.39-1.69,3.79-3.5,6.2-3.95l.1-.25-1.69-4.51c-3.2.71-6.41,2.79-8.76,5.68-5.01,6.16-4.76,14.5,1.6,19.68,6.24,5.1,14.4,3.64,19.24-2.29,2.46-3.02,3.95-6.55,4.08-9.26l-4.04-3.29Z" fill="#1c1a1a"/>
            <path d="m170.64,87.62c-4.85-6.14-13.11-6.97-19.39-2-6.14,4.85-7.34,13.19-2.52,19.31,4.85,6.12,13.11,6.95,19.37,2,6.12-4.85,7.39-13.17,2.54-19.31Zm-5.74,15.25c-3.66,2.87-8.59,2.14-11.55-1.6-2.98-3.77-2.56-8.68,1.12-11.59,3.5-2.77,8.51-2.25,11.53,1.58,3.02,3.81,2.46,8.78-1.1,11.61Z" fill="#1c1a1a"/>
            <path d="m198.85,75.03l-6.18-13.04-5.22,2.46,6.22,13.17c1.79,3.79,1.06,7.14-2.21,8.68-3.24,1.54-6.34.06-8.13-3.7l-6.24-13.23-5.22,2.48,6.16,13.04c3.25,6.87,9.43,9.11,15.62,6.18,6.2-2.93,8.45-9.17,5.2-16.02Z" fill="#1c1a1a"/>
            <path d="m221.15,71.43c3.45-2.12,5.03-5.7,4.16-9.38-1.21-5.03-6.05-7.47-12.15-6.01l-9.24,2.21,6.1,25.53,5.37-1.27-2.04-8.55,2.08-.5,9.51,6.76,5.87-1.39.17-.62-9.82-6.76Zm-5.58-2.48l-3.25.77-1.91-8.07,3.25-.77c3.35-.79,5.72.42,6.28,2.7.54,2.33-1,4.6-4.37,5.37Z" fill="#1c1a1a"/>
            <path d="m248.34,63.76l-6.59-1.64c-2.06-.58-2.41-1.81-2.46-2.66-.08-1.77,1.06-3.1,4.51-3.27,2.58-.1,5.97.46,8.07,1.75l-.25-5.22c-1.64-.89-5.16-1.48-8.24-1.33-6.08.27-10.09,3.35-9.86,8.36.12,2.81,1.6,5.64,5.41,6.74l6.87,1.56c1.52.46,2.5,1.17,2.56,2.5.08,1.81-2.02,2.95-5.16,3.1-2.72.12-6.59-.64-9.24-1.93l-.12.06,1.19,5.41c2.37.89,6.16,1.48,8.68,1.35,6.24-.27,10.61-3.37,10.38-8.34-.15-3.35-2.33-5.62-5.74-6.43Z" fill="#1c1a1a"/>
            <path d="m315.02,64.88l-15.81,10.22-5.76-17.95-3.25-1.17-8.86,24.7,5.43,1.96,5.01-13.98,4.43,13.46.83.31,11.96-7.59-5.01,13.98,5.45,1.96,8.86-24.72-3.29-1.17Z" fill="#1c1a1a"/>
            <path d="m338.66,77.8c-6.53-4.33-14.81-2.89-19.12,3.6-4.31,6.51-2.54,14.6,4.12,19.02,6.49,4.33,14.79,2.93,19.12-3.58,4.31-6.51,2.54-14.6-4.12-19.04Zm-.79,15.77c-2.66,4.04-7.57,5.06-11.36,2.54-3.87-2.56-4.7-7.49-2.06-11.44,2.64-4.02,7.45-5.14,11.36-2.54,3.7,2.45,4.76,7.39,2.06,11.44Z" fill="#1c1a1a"/>
            <path d="m368.62,104.03l-11.09,10.76.44-21.74-1.17-1.19-18.81,18.29,4.02,4.16,10.76-10.46-.12,21.41,1.19,1.21,18.81-18.29-4.01-4.14Z" fill="#1c1a1a"/>
            <path d="m384.97,125.63l-5.91-9.34-22.18,14.04,5.91,9.34c4.18,6.6,11.51,8.3,18.14,4.1,6.57-4.16,8.32-11.38,4.04-18.14Zm-7.2,13.17c-4.02,2.56-8.34,1.83-10.78-2.04l-2.72-4.26,13.56-8.59,2.71,4.26c2.41,3.81,1.29,8.07-2.77,10.63Z" fill="#1c1a1a"/>
            <path d="m394.83,143.25l-4.49,1.89,1.39,3.35-15.21,6.41-1.39-3.35-4.49,1.89,5.06,12.03,4.49-1.89-1.42-3.35,15.21-6.41,1.42,3.35,4.49-1.87-5.06-12.05Z" fill="#1c1a1a"/>
            <path d="m405.73,175.14l-28.21-6.28,1.25,5.72,5.41,1.1,2.64,12.3-4.47,3.27,1.23,5.7,23.11-17.39-.96-4.41Zm-14.75,9.82l-1.79-8.24,10.24,2.08-8.45,6.16Z" fill="#1c1a1a"/>
            <path d="m409.75,207.12l-.08-5.76-26.26.44.27,16.37,5.26-.08-.19-10.61,20.99-.35Z" fill="#1c1a1a"/>
          </g>
          <g>
            <g>
              <path d="m102.13,256.01c4.74-.06,11.46-.17,16.46-.08-1.02-1.77-1.73-2.79-2.33-4.64h-.31c.19,1.58-.29,1.66-2.08,1.66l-4.18.06c.6-.94.73-2.1.44-3.2-.73-2.79-4.08-5.49-9.7-5.28-4.01.12-6.16,1.89-5.64,3.85.48,1.83,3.25,3.79,8.88,4.72l-.06.1c-5.53-.1-7.34.87-7.03,2.08.35,1.35,3.39,2.89,6.87,3.45l.17-.17c-4.62-1.23-5.64-2.5-1.48-2.56Zm-4-6.49c-.25-.96.67-1.75,2.52-2.08,3.41-.64,8.11.27,8.82,3,.19.75.1,1.58-.35,2.58-3.14.1-1.25.08-4.39.06-4.27-1.08-6.3-2.41-6.6-3.56Z" fill="#1c1a1a"/>
              <path d="m115.07,264.79c-1.29-2.87-5.1-5.06-9.61-4.56-4.47.48-6.32,3.33-5.14,6.37.73,1.89,2.75,4.02,7.86,4.56l.04-.29c-4.56-.79-5.22-3.12-5.22-3.12-.81-1.87.1-3.39,2.08-4.43,5.97,7.74,7.24,7.24,8.11,6.8,2.35-1.17,2.79-3.27,1.87-5.33Zm-2.89,2.6c-.96.48-2.45.19-6.57-4.33.08-.06.17-.1.25-.12,3.43-1.39,6.47-.94,7.61.5.23.27.42.56.5.83.5,1.35-.52,2.45-1.79,3.12Z" fill="#1c1a1a"/>
            </g>
            <path d="m140.22,283.2l-6.16-9.59-23.32,14.96,7.01,10.92c2.79,4.37,7.26,5.64,10.78,3.39,3.04-1.93,3.79-5.53,2.62-8.45,2,1.87,5.18,2.5,7.8.81,3.58-2.29,4.58-6.87,1.27-12.05Zm-14.23,14.11c-1.66,1.08-3.62.25-5.01-1.96l-2.83-4.39,5.64-3.62,2.81,4.41c1.41,2.18,1.06,4.49-.6,5.55Zm8.95-6.57c-1.77,1.12-3.89.37-5.51-2.16l-2.21-3.41,5.93-3.81,2.35,3.66c1.58,2.48,1.33,4.49-.56,5.72Z" fill="#1c1a1a"/>
            <path d="m156.8,303.67l-7.05-7.09-19.66,19.49,4.1,4.14,6.57-6.53,1.58,1.6-.85,12.3,4.47,4.51.65-.19.71-12.57c3.83,1.96,7.91,1.39,10.74-1.41,3.89-3.85,3.41-9.55-1.25-14.25Zm-3.1,10.26c-1.79,1.79-4.68,1.64-7.22-.98l-2.48-2.5,6.22-6.16,2.48,2.5c2.56,2.58,2.77,5.39,1,7.14Z" fill="#1c1a1a"/>
            <path d="m184.81,325.44l-8.28,12.94c-2.37,3.72-5.78,4.95-8.99,2.89-3.2-2.04-3.62-5.64-1.25-9.34l8.3-13.02-5.14-3.27-8.2,12.84c-4.31,6.74-2.87,13.52,3.24,17.43,6.1,3.89,12.94,2.39,17.23-4.35l8.22-12.86-5.14-3.27Z" fill="#1c1a1a"/>
            <path d="m218.95,339.62l-6.22-2.18-9.2,6.49-3.1-10.84-6.22-2.18-.17.44,4.72,15.52-14.11,9.55-.17.46,6.24,2.18,9.9-6.91,3.37,11.61,6.2,2.18.17-.46-4.93-16.25,13.36-9.15.15-.46Z" fill="#1c1a1a"/>
            <path d="m241.02,348.09l.71-5.35-17.54-2.35-3.7,27.46,17.54,2.37.73-5.35-11.51-1.54.79-5.89,10.88,1.41.62-4.66-10.86-1.48.83-6.2,11.51,1.56Z" fill="#1c1a1a"/>
            <path d="m266.96,364.32l-11.19.48-.96-22.16-6.1.27,1.19,27.69,17.29-.75-.23-5.53Z" fill="#1c1a1a"/>
            <path d="m293.2,359.16l-10.94,2.41-4.76-21.66-5.95,1.31,5.97,27.07,16.89-3.7-1.21-5.43Z" fill="#1c1a1a"/>
            <path d="m318.58,349.46l-10.71,4.49-2.29-5.47,10.09-4.29-1.81-4.35-10.13,4.24-2.41-5.76,10.69-4.49-2.08-4.97-16.31,6.87,10.71,25.55,16.33-6.84-2.08-4.97Z" fill="#1c1a1a"/>
            <path d="m343.65,330.95c-1.96-2.93-5.16-3.79-8.7-2.66l-6.87,2.14c-2.19.58-3.16-.31-3.68-1.08-1.02-1.54-.73-3.37,2.29-5.39,2.29-1.52,5.66-2.89,8.26-2.87l-3.08-4.56c-1.98.08-5.49,1.48-8.18,3.29-5.33,3.58-7.28,8.55-4.33,12.96,1.66,2.48,4.53,4.2,8.57,3.12l7.05-2.35c1.62-.42,2.89-.31,3.68.87,1.06,1.58-.19,3.74-2.95,5.62-2.39,1.6-6.3,3.04-9.4,3.31l-.06.12,4.02,4.22c2.64-.48,6.37-2.04,8.57-3.52,5.49-3.68,7.74-8.86,4.81-13.23Z" fill="#1c1a1a"/>
          </g>
        </g>
      </g>
    </g>
  </g>
  <g id="c" data-name="texte - copie">
    <g>
      <path d="m86.8,355.76c-3.22,2.57-7.22,5.76-10.33,8.29-3.11,2.58-3.39,2.8-2.28,5.41l-.31.25c-2.18-2.93-3.5-4.58-5.89-7.38l.31-.25c2.44,1.84,2.75,1.59,5.93-.85,3.18-2.49,7.18-5.68,10.4-8.25,3.79-3.07,4.11-3.38,2.68-6.07l.31-.25c2.21,2.96,3.5,4.58,5.89,7.38l-.31.25c-2.14-1.78-2.53-1.57-6.4,1.47Z" fill="#1d1d1b"/>
      <path d="m88.93,385.76l-.29.27c-.93-1.12-1.71-2.02-2.5-2.87-.89-.96-1.78-1.86-2.96-3.02l.29-.27c2.01,1.23,2.27,1.04,4.15-.71,2.35-2.18,5.43-5.14,6.9-6.5,1.64-1.52,1.49-2.75.63-3.67-1.41-1.52-4.69-2.3-5.74-2.37-2.13,1.82-5.09,4.51-7.33,6.69-1.79,1.66-1.94,1.85-1.16,3.8l-.29.27c-.99-1.18-1.77-2.08-2.6-2.98-.81-.87-1.65-1.72-2.75-2.79l.29-.27c1.92,1.25,2.13,1.06,4-.62,2.14-1.99,5.25-4.87,7.45-6.97,1.55-1.44,1.55-1.86.36-3.37l.29-.27c1.77,1.55,2.8,2.43,4.69,3.76l-2.2,2.04c2.75.38,6.13,1.49,7.83,3.32,1.57,1.69,1.66,3.96-1.54,6.93-1.47,1.36-4.18,3.72-6.3,5.74-1.79,1.71-2.03,1.93-1.22,3.86Z" fill="#1d1d1b"/>
      <path d="m100.52,393.57c-3.98.63-6.24-1.4-6.24-1.4-2.11-1.62-2.16-4.06-.1-6.24,2.74-2.97,5.94-6.38,8.79-9.58l-1.41-1.3.35-.38c2.37,2.19,5.12.8,8.24-1l.31.29-4.1,4.44,4.09,3.77-.54.59-4.09-3.78c-2.99,3.07-6.21,6.68-8.76,9.44-.92,1-1.57,2.09-.66,3.15,0,0,1.11,1.57,4.16,1.61l-.05.39Z" fill="#1d1d1b"/>
      <path d="m113.72,402.34c-3.3,1.44-6.42.96-8.45-.63-3.21-2.5-3.98-7.77-.35-12.24,3.66-4.5,8.92-5.01,12.17-2.74,2.27,1.59,3.67,4.68,2.42,8.1-.45,1.28-1.38,3.16-12.32-2.49-1.42,3.38-.91,6.78,1.4,8.45,0,0,2.03,1.65,5.04,1.16l.09.38Zm2.94-9.83c.65-1.89.57-4.23-.89-5.42-.3-.24-.68-.45-1.08-.56-1.97-.68-5.11,1-7.16,5.16,6.92,3.36,8.61,2.25,9.13.82Z" fill="#1d1d1b"/>
      <path d="m118.96,410.5l-.23.33c-2.44-1.87-3.82-2.84-6.41-4.51l.23-.33c2.23.64,2.3.54,3.61-1.32,1.68-2.39,4.18-5.86,5.76-8.17,1.43-2.03,1.57-2.37-.06-3.71l.23-.33c2.08,1.12,3.24,1.74,5.34,2.69l-1.59,2.26s4.17-.98,6,.21c3.35,2.11-.22,5.38-1.76,4.24-1.15-.71.51-2.19.16-2.97-.12-.23-.28-.4-.47-.53-1.35-.95-4.48-.17-4.48-.17-1.67,2.25-4.25,5.91-6.07,8.49-1.27,1.8-1.3,1.92-.25,3.83Z" fill="#1d1d1b"/>
      <path d="m142.4,425.08l-.2.34c-1.22-.81-2.22-1.45-3.22-2.03-1.13-.66-2.24-1.27-3.7-2.04l.2-.34c2.28.6,2.47.34,3.77-1.87,1.62-2.76,3.72-6.49,4.74-8.21,1.13-1.93.64-3.06-.45-3.7-1.79-1.05-5.16-.85-6.18-.62-1.52,2.36-3.58,5.78-5.09,8.51-1.24,2.1-1.32,2.33-.02,3.98l-.2.34c-1.28-.85-2.29-1.48-3.35-2.11-1.03-.6-2.07-1.17-3.44-1.88l.2-.34c2.2.65,2.35.4,3.66-1.75,1.48-2.52,3.63-6.17,5.13-8.81,1.07-1.83.95-2.22-.62-3.34l.2-.34c2.14.98,3.38,1.52,5.58,2.26l-1.52,2.59c2.75-.43,6.3-.33,8.45.93,1.99,1.17,2.73,3.32.52,7.08-1.01,1.72-2.94,4.77-4.38,7.31-1.22,2.16-1.39,2.43-.06,4.05Z" fill="#1d1d1b"/>
      <path d="m161.23,431.62c-2.59,1.26-4.18,1.48-5.3,1.17-2.24-.66-1.91-3.15-1.09-4.89v-.18c-2.31,1.21-4.36,2.15-6.27,1.6-2.05-.61-4.16-3.24-2.54-6.68,1.62-3.44,6.31-3.04,11.79-1.34l1.55-3.29c.92-1.95.15-3.11-1.28-3.78-1.67-.79-4.26-.86-6.03-.63l-.04-.37c2.5-.72,5.36-.84,7.6,0,2.59,1,4.59,3.22,2.98,6.66l-4.55,9.66c-.41.96-.32,1.66.27,1.94.56.26,1.56.2,2.94-.3l-.03.43Zm-10.47-4.09c.94.44,2.37.37,4.39-.58l2.28-4.85c-4.23-1.02-6.77-.4-7.69,1.91-.6,1.36-.31,2.91,1.01,3.53Z" fill="#1d1d1b"/>
      <path d="m172.64,436.12c-3.47,2.04-6.31.97-6.31.97-2.56-.74-3.49-3-2.36-5.78,1.47-3.76,3.21-8.11,4.7-12.12l-1.79-.7.19-.48c3,1.17,5.05-1.12,7.31-3.93l.39.15-2.2,5.63,5.19,2.03-.29.75-5.19-2.03c-1.66,3.95-3.35,8.48-4.72,11.98-.49,1.27-.7,2.52.53,3.17,0,0,1.61,1.06,4.46-.02l.1.38Z" fill="#1d1d1b"/>
      <path d="m181.76,441.3l-.13.38c-1.61-.62-2.91-1.1-4.19-1.52-1.46-.49-2.89-.92-4.77-1.46l.13-.38c2.86.28,3.17-.17,4.06-2.7,1.02-3.07,1.81-5.43,2.78-8.47.83-2.5.91-2.73-1.05-3.89l.13-.38c2.3.64,3.6.86,5.96,1.31-1.74,4.98-2.76,8.15-4.22,12.55-.82,2.47-.87,3.08,1.31,4.57Zm.49-23.58c.38-1.14,1.62-1.7,2.78-1.31,1.06.35,1.71,1.54,1.33,2.68-.46,1.37-1.68,1.88-2.74,1.53-1.17-.39-1.83-1.54-1.38-2.91Z" fill="#1d1d1b"/>
      <path d="m195.86,426.73c3.92.95,6.91,4.97,5.25,11.23-1.59,6.03-6.54,8.2-10.53,7.06-3.92-1.08-6.96-5.36-5.46-11.04,1.54-5.84,6.62-8.22,10.74-7.26Zm1.66,9.79c.78-4.47-.23-8.75-3.07-9.13-2.65-.33-4.89,3.01-5.62,7.45-.79,4.63.39,9.33,3.19,9.57,2.87.26,4.84-3.89,5.5-7.89Z" fill="#1d1d1b"/>
      <path d="m220.76,449.9l-.07.39c-1.43-.32-2.59-.56-3.73-.76-1.29-.22-2.54-.39-4.18-.59l.07-.39c2.34-.25,2.43-.56,2.86-3.08.54-3.15,1.18-7.39,1.52-9.36.38-2.21-.49-3.09-1.74-3.3-2.04-.35-5.12,1.04-6,1.62-.58,2.74-1.29,6.68-1.74,9.77-.41,2.41-.41,2.65,1.39,3.73l-.07.39c-1.5-.34-2.67-.58-3.88-.78-1.17-.2-2.35-.36-3.88-.54l.07-.39c2.29-.18,2.34-.45,2.8-2.93.49-2.88,1.2-7.06,1.67-10.06.36-2.09.1-2.42-1.77-2.9l.07-.39c2.35.16,3.7.22,6.02.13l-.5,2.96c2.42-1.37,5.77-2.55,8.23-2.13,2.27.39,3.73,2.14,2.99,6.43-.34,1.97-1.05,5.5-1.51,8.38-.38,2.45-.43,2.77,1.38,3.8Z" fill="#1d1d1b"/>
      <path d="m240.68,449.34c-1.97,2.09-3.38,2.86-4.55,2.97-2.33.18-2.9-2.27-2.75-4.19l-.06-.17c-1.73,1.95-3.32,3.55-5.3,3.72-2.13.16-5.04-1.56-4.74-5.34.3-3.79,4.83-5.08,10.55-5.43l.28-3.63c.17-2.15-.96-2.96-2.53-3.09-1.84-.14-4.29.71-5.86,1.55l-.17-.33c2.09-1.56,4.72-2.68,7.1-2.69,2.77.02,5.44,1.39,5.14,5.18l-.83,10.65c-.04,1.04.29,1.67.94,1.72.61.05,1.53-.36,2.65-1.32l.12.41Zm-11.24-.12c1.03.08,2.35-.5,3.9-2.1l.42-5.34c-4.32.54-6.48,2.02-6.51,4.5-.08,1.48.74,2.83,2.2,2.94Z" fill="#1d1d1b"/>
      <path d="m247.96,447.19c-.05,3,.02,3.24,2.2,4.36v.4c-1.54-.1-2.77-.16-4-.18s-2.42,0-3.99.06v-.4c2.02-.97,2.02-1.21,2.11-4.21.12-4.96.24-12.6.28-17.56,0-2.8-.03-3.04-1.97-3.91v-.4c2.31-.08,3.62-.22,5.85-.55-.27,6.96-.38,16.28-.47,22.39Z" fill="#1d1d1b"/>
      <path d="m283.85,444.37c-3.01,6.67-8.7,6.97-8.7,6.97-4.85.5-11.73-3.32-12.97-11.52-1.22-8,3.66-13.77,9.54-14.86,2.34-.48,4.09-.34,7,.52.24.06.6.18,1.06.13.38-.04.79-.16,1.3-.46l-.62,6.62-.38.04c-1.35-4.48-4.73-6.47-7.9-6.14-.65.07-1.25.25-1.84.47-3.55,1.45-5.9,6.04-4.53,12.49,1.35,6.66,6.17,10.3,10.35,10.1,0,0,4.14.05,7.4-4.59l.29.21Z" fill="#1d1d1b"/>
      <path d="m292.58,429.36c3.94-.88,8.4,1.39,9.69,7.74,1.25,6.12-2.22,10.25-6.3,11-4,.77-8.62-1.72-9.79-7.48-1.21-5.92,2.29-10.3,6.41-11.26Zm5.83,8.04c-1.28-4.35-4.08-7.74-6.8-6.82-2.52.88-3.05,4.87-1.74,9.17,1.35,4.5,4.49,8.19,7.1,7.17,2.69-1.04,2.62-5.64,1.43-9.52Z" fill="#1d1d1b"/>
      <path d="m325,438.97l.12.38c-1.52.41-2.74.77-3.91,1.15-1.2.39-2.36.81-3.83,1.38l-.12-.38c1.77-1.5,1.77-1.76,1.02-4.04-.93-2.98-2.16-7-3.04-9.19-.66-2.02-1.65-2.45-2.71-2.1-1.64.54-3.38,3-4.05,4.18.8,2.94,1.99,6.84,3,9.54.76,2.19.81,2.35,2.97,2.52l.12.38c-1.49.4-2.67.75-3.83,1.13s-2.32.8-3.8,1.37l-.12-.38c1.87-1.45,1.81-1.64,1.1-3.94-.83-2.8-2.08-6.6-3.01-9.2-.67-2.05-1.15-2.65-3.07-2.24l-.12-.38c2.15-.96,3.38-1.53,5.49-2.72l.93,2.85c1.2-2.03,3.52-4.81,5.85-5.58,1.61-.53,3.22-.04,4.38,2.4,1.3-2.19,3.66-4.99,6-5.75,2.01-.66,4.01.16,5.3,3.99.68,1.96,1.83,5.59,2.77,8.35.76,2.32.88,2.57,3.1,2.82l.12.38c-1.45.39-2.59.72-3.69,1.08-1.24.41-2.43.84-3.98,1.43l-.12-.38c1.83-1.57,1.78-1.84,1.06-4.18-1.02-3.12-2.34-7.28-3.07-9.14-.67-1.93-1.73-2.34-2.83-1.98-1.79.58-3.64,3.08-4.24,4.33h-.04c.04.13.1.19.14.3.83,2.55,1.85,6.17,2.81,8.97.79,2.18.87,2.41,3.28,2.63Z" fill="#1d1d1b"/>
      <path d="m345.88,431.05c-.8.37-1.66.63-2.47.78l2.09,4.54c1.27,2.76,1.52,3.31,4.91,2.59l.17.36c-3.42,1.48-5.34,2.36-8.62,3.96l-.17-.36c1.74-1.55,1.59-2.05.26-4.96-2.14-4.74-4.99-10.78-7.11-15.31-1.57-3.42-1.77-3.85-4.94-2.57l-.17-.36,5.7-3.32c.91-.42,1.6,1.73,1.6,1.73.87-2.42,2.17-4.21,3.81-5.05,2.93-1.43,6.65-.06,8.94,4.48,3.53,7.05.03,11.65-3.99,13.49Zm1.01-11.42c-1.89-3.01-4.55-5.13-6.82-4.09-.98.45-1.88,1.52-2.6,3.35,1.38,3.55,3.33,7.8,5.21,11.34,1.43.18,3.33-.21,3.33-.21,3.83-1.23,3.46-6.26.89-10.4Z" fill="#1d1d1b"/>
      <path d="m367.97,414.69c.15,3.6-1.42,6.34-3.64,7.65-3.5,2.09-8.68.9-11.54-4.1-2.88-5.04-1.45-10.13,1.84-12.34,2.3-1.54,5.69-1.73,8.43.67,1.04.88,2.45,2.43-6.78,10.6,2.65,2.54,6,3.3,8.39,1.75,0,0,2.27-1.29,2.91-4.28l.39.06Zm-8.1-6.29c-1.53-1.29-3.74-2.06-5.37-1.12-.33.19-.66.47-.92.8-1.34,1.6-.92,5.13,2.22,8.54,5.63-5.24,5.21-7.21,4.07-8.22Z" fill="#1d1d1b"/>
      <path d="m379.98,408.65c-.33,4.01-2.84,5.72-2.84,5.72-2.08,1.66-4.46,1.13-6.08-1.39-2.23-3.37-4.79-7.29-7.21-10.81l-1.6,1.06-.29-.43c2.69-1.78,1.99-4.78.99-8.24l.35-.23,3.34,5.03,4.64-3.08.44.67-4.64,3.08c2.27,3.63,5,7.62,7.08,10.76.75,1.13,1.66,2.02,2.9,1.39,0,0,1.79-.71,2.55-3.66l.37.14Z" fill="#1d1d1b"/>
      <path d="m370.46,390.21c-.71-.97-.46-2.3.53-3.03.9-.66,2.25-.51,2.96.45.86,1.16.58,2.46-.32,3.12-.99.73-2.31.61-3.17-.54Zm19,13.97l.24.32c-1.44.96-2.57,1.75-3.66,2.55-1.24.91-2.42,1.83-3.95,3.06l-.24-.32c1.88-2.18,1.69-2.69.13-4.87-1.92-2.61-3.4-4.6-5.33-7.15-1.57-2.12-1.71-2.32-3.79-1.38l-.24-.32c1.84-1.51,2.78-2.45,4.5-4.12,3.07,4.29,5.08,6.94,7.83,10.67,1.54,2.09,2.02,2.48,4.49,1.56Z" fill="#1d1d1b"/>
      <path d="m397.88,394.72c.07,4.03-2.25,5.98-2.25,5.98-1.9,1.86-4.32,1.57-6.19-.78-2.56-3.13-5.49-6.77-8.26-10.04l-1.49,1.22-.33-.4c2.5-2.04,1.51-4.95.16-8.29l.33-.27,3.82,4.67,4.31-3.52.51.62-4.31,3.52c2.62,3.39,5.74,7.08,8.12,9.99.86,1.05,1.85,1.84,3.02,1.09,0,0,1.71-.88,2.17-3.89l.38.1Z" fill="#1d1d1b"/>
      <path d="m386.55,377.34c-.81-.89-.68-2.24.23-3.07.83-.75,2.18-.74,2.99.15.97,1.07.82,2.39,0,3.14-.91.83-2.24.84-3.21-.22Zm20.3,12l.27.3c-1.33,1.1-2.38,2-3.38,2.9-1.14,1.03-2.22,2.07-3.62,3.44l-.27-.3c1.65-2.36,1.41-2.84-.36-4.86-2.18-2.4-3.84-4.24-6.02-6.59-1.77-1.96-1.93-2.13-3.91-1l-.27-.3c1.68-1.69,2.52-2.71,4.07-4.55,3.49,3.97,5.75,6.4,8.86,9.84,1.75,1.93,2.26,2.27,4.62,1.1Z" fill="#1d1d1b"/>
      <path d="m401.11,369.88c2.75-2.94,7.72-3.58,12.37.94,4.47,4.35,3.94,9.72.99,12.64-2.87,2.89-8.09,3.43-12.3-.67-4.33-4.21-3.91-9.8-1.05-12.91Zm9.35,3.36c-3.51-2.88-7.74-4.1-9.46-1.81-1.59,2.15.22,5.74,3.73,8.56,3.65,2.96,8.32,4.24,9.91,1.92,1.64-2.37-1.01-6.13-4.18-8.67Z" fill="#1d1d1b"/>
      <path d="m433.51,359.58l.31.25c-.98,1.08-1.76,1.98-2.49,2.88-.82,1.01-1.59,2.02-2.57,3.35l-.31-.25c.93-2.16.71-2.39-1.28-4.01-2.49-2.02-5.86-4.65-7.41-5.92-1.74-1.41-2.93-1.09-3.73-.11-1.31,1.61-1.61,4.97-1.54,6.02,2.1,1.85,5.18,4.4,7.66,6.31,1.9,1.54,2.11,1.66,3.93.62l.31.25c-1.03,1.14-1.81,2.04-2.59,3-.75.92-1.47,1.87-2.38,3.12l-.31-.25c.97-2.08.75-2.26-1.18-3.88-2.27-1.84-5.56-4.51-7.95-6.4-1.65-1.34-2.06-1.27-3.39.12l-.31-.25c1.29-1.97,2.01-3.11,3.07-5.18l2.33,1.89c-.01-2.78.61-6.28,2.19-8.22,1.45-1.79,3.69-2.2,7.08.55,1.55,1.26,4.28,3.62,6.57,5.43,1.95,1.53,2.2,1.74,3.99.67Z" fill="#1d1d1b"/>
    </g>
  </g>
</svg>